<svg width="20" height="21" viewBox="0 0 20 21" fill="none" xmlns="http://www.w3.org/2000/svg">
<path d="M19.4556 15.178L16.6646 12.3869C15.6678 11.3901 13.9732 11.7889 13.5745 13.0847C13.2754 13.9818 12.2786 14.4802 11.3815 14.2808C9.38789 13.7824 6.69651 11.1907 6.19811 9.09745C5.89907 8.20029 6.49715 7.20348 7.39428 6.90448C8.69012 6.50575 9.08885 4.81119 8.09204 3.81438L5.30098 1.02332C4.50354 0.325559 3.30737 0.325559 2.60961 1.02332L0.715677 2.91725C-1.17825 4.91087 0.915038 10.1939 5.60003 14.8789C10.285 19.5639 15.5681 21.7569 17.5617 19.7633L19.4556 17.8693C20.1534 17.0719 20.1534 15.8757 19.4556 15.178Z" fill="white"/>
</svg>
