<svg width="384" height="383" viewBox="0 0 384 383" fill="none" xmlns="http://www.w3.org/2000/svg">
<g clip-path="url(#clip0_1014_1266)">
<g opacity="0.25">
<path d="M70.7116 334.744C0.580734 282.717 -19.6915 184.139 20.305 106.373C60.8494 26.9639 151.8 -15.753 231.245 6.70076C334.25 35.7263 368.22 159.496 294.254 235.072C289.871 239.453 284.939 242.191 280.008 246.025C283.296 224.667 290.418 204.404 289.323 184.14C284.939 121.16 223.575 80.6337 160.567 96.5156C64.6847 121.159 15.9218 230.69 61.9452 318.314C64.6847 323.791 67.9721 329.267 70.7116 334.744Z" fill="#C1D1E0"/>
<path d="M101.16 147.639C98.4175 160.785 95.6751 169.548 95.1267 178.311C87.4483 244.037 141.746 297.713 208.109 289.497C312.864 276.352 373.195 176.121 335.351 77.5323C333.706 73.6983 332.609 69.3166 329.866 62.7441C379.228 103.275 397.327 185.979 373.743 254.444C338.642 356.319 222.369 411.09 134.067 367.821C55.0893 329.481 32.6025 229.249 86.3514 161.332C89.6421 156.951 94.0298 154.212 101.16 147.639Z" fill="#C1D1E0"/>
</g>
</g>
<defs>
<clipPath id="clip0_1014_1266">
<rect width="384" height="383" fill="white"/>
</clipPath>
</defs>
</svg>
