<svg width="130" height="150" viewBox="0 0 130 150" fill="none" xmlns="http://www.w3.org/2000/svg">
<path d="M128.314 125.068L111.998 96.8374C112.745 96.188 113.584 95.6148 114.491 95.089C119.998 91.8904 128.075 89.3098 127.044 81.3444C126.535 77.4163 124.149 74.0403 122.572 70.4974C121.778 68.7134 121.11 66.7861 121.214 64.8063C121.31 62.9829 121.982 61.241 122.741 59.603C124.37 56.0916 126.75 52.6551 127.094 48.6981C127.398 45.1867 125.686 42.1748 122.936 40.1109C120.226 38.0771 117.004 36.9031 114.119 35.1626C110.914 33.2301 109.224 30.702 108.438 27.0605C107.122 20.9698 107.179 12.6928 99.6288 10.9733C95.8163 10.103 91.8829 11.2546 88.0955 11.72C84.2646 12.1906 81.145 11.6135 78.1568 9.07492C73.2164 4.87992 68.2576 -2.55435 60.7747 0.880792C54.5433 3.74144 51.5078 11.9211 43.9408 11.9132C37.7015 11.9132 29.7782 8.15993 24.8351 13.7971C20.2195 19.0622 22.9881 27.4391 18.4013 32.6122C14.0656 37.5026 5.61121 37.8405 2.85705 44.3453C-0.516308 52.3133 8.85311 58.3817 8.03541 66.1039C7.27686 73.2647 -1.19729 80.0403 3.55775 87.4575C7.25188 93.2195 15.8746 93.2537 19.3176 99.1275C22.6713 104.85 20.2957 113.265 25.9631 117.794C32.3798 122.92 40.616 116.532 47.5494 119.186C48.4026 119.512 49.1927 119.957 49.9447 120.472L35.719 145.099C34.8987 146.533 33.5486 147.339 31.9145 147.368C31.8842 147.369 31.8527 147.369 31.8237 147.369C30.2278 147.369 28.8777 146.627 28.0139 145.273L21.028 134.265C20.7966 133.902 20.4009 133.674 19.9697 133.656L6.96398 133.131C5.34566 133.071 4.01787 132.246 3.22252 130.804C2.42322 129.352 2.42979 127.784 3.24618 126.385L16.1454 104.069C16.5082 103.441 16.2926 102.636 15.6642 102.273C15.0358 101.911 14.2313 102.125 13.8684 102.755L0.971861 125.067C-0.305966 127.259 -0.32437 129.812 0.920591 132.072C2.16029 134.323 4.32944 135.665 6.86406 135.757L19.1756 136.255L25.7948 146.686C27.1423 148.797 29.3338 150 31.8237 150C31.8698 150 31.9145 149.999 31.9605 149.999C34.5188 149.954 36.7208 148.645 37.9986 146.411L52.0166 122.142C55.8645 125.661 58.9723 130.5 64.6239 130.5C70.8632 130.5 74.4351 124.292 78.843 120.879C84.2988 116.654 90.6012 119.837 96.7589 119.837C99.6551 119.837 102.496 118.946 104.45 116.719C106.164 114.764 106.895 112.19 107.372 109.688C107.923 106.784 108.116 103.768 109.123 100.969C109.394 100.213 109.75 99.539 110.163 98.9185L126.041 126.389C126.854 127.785 126.861 129.352 126.062 130.804C125.268 132.246 123.94 133.071 122.315 133.131L109.315 133.656C108.884 133.674 108.488 133.902 108.257 134.265L101.272 145.27C100.389 146.652 99.0253 147.442 97.3676 147.368C95.7348 147.34 94.3834 146.533 93.5604 145.095L82.716 126.321C82.3518 125.691 81.5446 125.474 80.9202 125.84C80.2905 126.202 80.0749 127.007 80.439 127.635L91.2808 146.404C92.5613 148.643 94.762 149.953 97.3216 149.997C97.3676 149.997 97.4123 149.999 97.4583 149.999C99.9482 149.999 102.14 148.796 103.49 146.683L110.106 136.255L122.413 135.757C124.954 135.667 127.122 134.323 128.361 132.072C129.608 129.81 129.588 127.257 128.314 125.068ZM107.166 98.8067C105.602 102.135 105.439 105.886 104.737 109.442C104.148 112.426 103.023 115.593 99.9127 116.72C96.4408 117.978 92.3825 116.694 88.8764 116.224C85.148 115.723 81.5525 115.888 78.3316 118.01C73.3926 121.262 68.3154 130.748 61.3347 126.966C58.1743 125.252 55.9342 122.177 53.2812 119.824C50.5797 117.429 47.5626 115.954 43.9039 115.954C40.4977 115.954 37.1927 116.903 33.8089 117.151C31.1204 117.348 28.315 116.938 26.5665 114.678C24.893 112.514 24.5209 109.563 24.1147 106.942C23.6664 104.05 23.272 101.052 21.9232 98.4124C19.0718 92.8383 12.5104 91.7406 7.88422 88.2252C5.64934 86.5267 4.41752 84.1446 4.90525 81.3024C5.43374 78.2169 7.24662 75.4588 8.59149 72.681C10.3071 69.1393 11.2996 65.5372 10.1507 61.6525C9.02664 57.8532 6.5893 54.6218 5.34171 50.8777C4.21244 47.4833 5.02094 44.4189 7.88554 42.2432C10.6607 40.1345 14.0393 38.9855 16.9762 37.1358C20.1511 35.1363 22.1809 32.4294 23.1379 28.7932C24.0398 25.3712 24.0713 21.7362 25.2401 18.3839C28.1165 10.1319 37.6581 14.5385 43.9394 14.5385C47.7585 14.5385 50.8268 12.9215 53.6007 10.3961C56.1971 8.0311 58.4688 4.92856 61.6831 3.3602C64.9802 1.7524 68.0788 3.24845 70.62 5.49122C73.3242 7.87729 75.588 10.801 78.684 12.7204C82.1191 14.8501 85.9815 14.7108 89.8426 14.1271C93.2199 13.617 97.3071 12.4562 100.558 14.0574C103.506 15.5101 104.365 18.8992 104.89 21.8716C105.516 25.4316 105.76 29.227 107.563 32.4439C109.335 35.603 112.544 37.4053 115.669 38.9921C118.46 40.4093 121.912 41.7883 123.608 44.5911C125.613 47.9053 123.758 51.7415 122.196 54.8164C120.474 58.2029 118.414 61.755 118.582 65.6884C118.75 69.6337 120.953 73.1109 122.643 76.5565C124.159 79.6499 125.54 83.3782 123.216 86.4505C121.214 89.0955 117.758 90.3799 114.909 91.8602C112.92 92.8935 110.99 94.0596 109.44 95.6109C109.362 95.6832 109.287 95.7528 109.231 95.8409C108.409 96.706 107.698 97.6722 107.166 98.8067Z" fill="#064685"/>
<path d="M64.6206 17.8989C38.5198 17.8989 17.2832 39.1342 17.2832 65.2377C17.2832 91.3411 38.5185 112.576 64.6206 112.576C90.7425 112.576 111.994 91.3411 111.994 65.2377C111.994 39.1342 90.7425 17.8989 64.6206 17.8989ZM64.6206 109.946C39.9686 109.946 19.9125 89.8897 19.9125 65.2364C19.9125 40.583 39.9686 20.5269 64.6206 20.5269C89.2924 20.5269 109.364 40.583 109.364 65.2364C109.364 89.8897 89.2924 109.946 64.6206 109.946Z" fill="#064685"/>
<path d="M85.8692 44.5506C85.3276 45.0344 85.2816 45.8652 85.764 46.4069C90.3968 51.5918 92.9485 58.2794 92.9485 65.2364C92.9485 80.8359 80.2413 93.5274 64.6221 93.5274C49.0226 93.5274 36.3311 80.8372 36.3311 65.2364C36.3311 49.6356 49.0213 36.9454 64.6221 36.9454C70.2566 36.9454 75.6992 38.5927 80.3609 41.7097C80.963 42.1133 81.7807 41.9529 82.1843 41.3482C82.5892 40.7447 82.4262 39.9283 81.8228 39.5248C76.7285 36.1172 70.7811 34.3162 64.6234 34.3162C47.5739 34.3162 33.7031 48.1869 33.7031 65.2364C33.7031 82.2859 47.5739 96.1567 64.6234 96.1567C81.6913 96.1567 95.5791 82.2859 95.5791 65.2364C95.5791 57.6326 92.7908 50.3232 87.7268 44.6558C87.2404 44.1128 86.4095 44.0695 85.8692 44.5506Z" fill="#064685"/>
</svg>
