<svg width="46" height="45" viewBox="0 0 46 45" fill="none" xmlns="http://www.w3.org/2000/svg">
<path d="M8.35623 39.3117C0.0686249 33.1881 -2.32701 21.5856 2.39952 12.4325C7.19079 3.08605 17.9388 -1.9417 27.3271 0.70109C39.4995 4.11739 43.5138 18.685 34.773 27.5802C34.255 28.0959 33.6723 28.4182 33.0896 28.8694C33.478 26.3555 34.3198 23.9706 34.1903 21.5856C33.6723 14.1729 26.4206 9.40297 18.9747 11.2723C7.64402 14.1729 1.88154 27.0646 7.32028 37.3779C7.64402 38.0225 8.0325 38.6671 8.35623 39.3117Z" fill="#4484c3"/>
<path d="M11.9817 17.3316C11.658 18.8786 11.3343 19.91 11.2695 20.9413C10.3631 28.6763 16.773 34.9932 24.6074 34.0264C36.974 32.4794 44.0962 20.6835 39.6287 9.08095C39.4344 8.62975 39.3049 8.11408 38.9812 7.34058C44.8084 12.1105 46.9451 21.8437 44.1609 29.901C40.0171 41.8903 26.2908 48.3361 15.8665 43.2439C6.54299 38.7318 3.88837 26.9359 10.2336 18.9431C10.622 18.4274 11.14 18.1051 11.9817 17.3316Z" fill="#4484c3"/>
</svg>