<svg width="188" height="186" viewBox="0 0 188 186" fill="none" xmlns="http://www.w3.org/2000/svg">
<path d="M19.1523 96.913V65.6086" stroke="#064685" stroke-width="6" stroke-miterlimit="10" stroke-linecap="round"/>
<path d="M167.848 65.6086V155.609" stroke="#064685" stroke-width="6" stroke-miterlimit="10"/>
<path d="M3.5 78.0013L93.5 3L183.5 78.0013" stroke="#064685" stroke-width="6" stroke-linecap="round" stroke-linejoin="round"/>
<path d="M160.021 59.0073V14.739" stroke="#064685" stroke-width="6" stroke-miterlimit="10"/>
<path d="M148.283 18.6521H132.631V34.3043" stroke="#064685" stroke-width="6" stroke-miterlimit="10"/>
<path d="M38.7168 120.391H97.4124C99.4881 120.391 101.479 121.216 102.946 122.684C104.414 124.151 105.239 126.142 105.239 128.217C105.239 130.293 104.414 132.284 102.946 133.751C101.479 135.219 99.4881 136.044 97.4124 136.044H62.1951" stroke="#064685" stroke-width="6" stroke-miterlimit="10" stroke-linecap="round"/>
<path d="M50.457 136.043H66.1092C68.1848 136.043 70.1754 136.868 71.6431 138.336C73.1108 139.803 73.9353 141.794 73.9353 143.87C73.9353 145.945 73.1108 147.936 71.6431 149.403C70.1754 150.871 68.1848 151.696 66.1092 151.696H50.457" stroke="#064685" stroke-width="6" stroke-miterlimit="10" stroke-linecap="round"/>
<path d="M50.457 151.696H66.1092C68.1848 151.696 70.1754 152.52 71.6431 153.988C73.1108 155.455 73.9353 157.446 73.9353 159.522C73.9353 161.597 73.1108 163.588 71.6431 165.056C70.1754 166.523 68.1848 167.348 66.1092 167.348H50.457" stroke="#064685" stroke-width="6" stroke-miterlimit="10" stroke-linecap="round"/>
<path d="M50.4565 167.348H58.2826C60.3582 167.348 62.3488 168.172 63.8165 169.64C65.2842 171.108 66.1087 173.098 66.1087 175.174C66.1087 177.25 65.2842 179.24 63.8165 180.708C62.3488 182.176 60.3582 183 58.2826 183H44.4779C32.9696 183 21.6194 180.321 11.3261 175.174H3.5" stroke="#064685" stroke-width="6" stroke-miterlimit="10" stroke-linecap="round"/>
<path d="M3.5 120.391H11.3261L26.9783 108.652H52.413" stroke="#064685" stroke-width="6" stroke-miterlimit="10" stroke-linecap="round"/>
<path d="M85.6748 151.696H152.197V89.087L116.979 53.8696L81.7617 89.087V109.63" stroke="#064685" stroke-width="6" stroke-miterlimit="10"/>
<path d="M116.978 96.9132C121.301 96.9132 124.805 93.4093 124.805 89.0871C124.805 84.7648 121.301 81.261 116.978 81.261C112.656 81.261 109.152 84.7648 109.152 89.0871C109.152 93.4093 112.656 96.9132 116.978 96.9132Z" stroke="#064685" stroke-width="6" stroke-miterlimit="10"/>
<path d="M116.979 128.217H124.805" stroke="#064685" stroke-width="6" stroke-miterlimit="10"/>
<path d="M132.631 128.217H140.457" stroke="#064685" stroke-width="6" stroke-miterlimit="10"/>
<path d="M116.979 53.8696V26.4783" stroke="#064685" stroke-width="6" stroke-miterlimit="10" stroke-linecap="round"/>
<path d="M67.4121 167.348H187.413" stroke="#064685" stroke-width="6" stroke-miterlimit="10"/>
</svg>
