<svg width="60" height="60" viewBox="0 0 60 60" fill="none" xmlns="http://www.w3.org/2000/svg">
<path d="M0.176557 17.1859C1.69879 26.0667 7.35744 35.9453 15.7061 44.2937C24.0547 52.642 33.9332 58.3008 42.8141 59.8231C43.3024 59.9458 43.8045 60.0052 44.3079 59.9996C47.0195 59.9996 50.9983 58.5638 56.3875 55.6485C57.0745 55.2883 57.6829 54.7949 58.1772 54.197C58.6715 53.5992 59.0417 52.9089 59.2664 52.1665L59.7048 50.7822C60.0749 49.6526 60.0975 48.438 59.7698 47.2954C59.4422 46.1528 58.7792 45.1349 57.8667 44.3731L51.1341 38.638C50.0975 37.748 48.7882 37.2385 47.4227 37.1937C46.0571 37.149 44.7173 37.5717 43.6246 38.3919L40.4232 40.7759C39.6441 41.3697 38.6942 41.6964 37.7147 41.7074C36.7351 41.7184 35.7781 41.4131 34.9858 40.837C34.9748 40.8291 34.9636 40.8216 34.9521 40.8145C28.5801 36.8084 23.1912 31.4197 19.1849 25.0478C19.1778 25.036 19.1702 25.025 19.1624 25.014C18.5862 24.2218 18.2809 23.2648 18.2919 22.2852C18.3029 21.3057 18.6296 20.3558 19.2235 19.5767L21.6079 16.3753C22.4281 15.2827 22.8508 13.9428 22.8061 12.5773C22.7613 11.2118 22.2518 9.90246 21.3618 8.86589L15.6267 2.13329C14.865 1.22079 13.847 0.55783 12.7044 0.230151C11.5617 -0.0975272 10.3471 -0.0748479 9.21752 0.295256L7.83332 0.733643C7.09086 0.958284 6.40056 1.32853 5.8027 1.82279C5.20484 2.31705 4.7114 2.92541 4.35116 3.61239C0.844747 10.0943 -0.521164 14.5352 0.176557 17.1859ZM44.4645 39.5202C45.3022 38.8912 46.3296 38.5671 47.3765 38.6014C48.4235 38.6356 49.4274 39.0262 50.2223 39.7086L56.9549 45.4436C57.6545 46.0276 58.1628 46.8081 58.4141 47.6841C58.6653 48.5602 58.648 49.4914 58.3643 50.3575L57.9258 51.7418C57.7866 52.1917 57.5808 52.6183 57.3153 53.0074C52.1715 49.3318 47.3965 45.1658 43.0574 40.5679L44.4645 39.5202ZM8.258 2.07423L9.6422 1.63573C10.1044 1.48822 10.5866 1.41269 11.0719 1.41179C11.7367 1.413 12.3932 1.55986 12.9952 1.84205C13.5972 2.12423 14.13 2.53487 14.5562 3.0451L20.2912 9.7777C20.9735 10.5725 21.3642 11.5764 21.3984 12.6234C21.4327 13.6704 21.1085 14.6977 20.4796 15.5354L19.4317 16.9426C14.8337 12.6035 10.6675 7.82856 6.99182 2.68476C7.38103 2.41918 7.80783 2.21338 8.258 2.07423ZM5.58794 4.28152C5.70161 4.07072 5.83005 3.86823 5.9723 3.67556C9.70218 8.87229 13.9265 13.6956 18.5861 18.0781L18.0957 18.7368C17.3233 19.7501 16.8973 20.9849 16.8808 22.2589C16.8643 23.5329 17.2581 24.7784 18.0039 25.8113C22.1187 32.3502 27.6497 37.8812 34.1886 41.9959C35.2216 42.7417 36.4671 43.1354 37.741 43.1188C39.015 43.1023 40.2498 42.6764 41.2631 41.9041L41.9218 41.4136C46.3041 46.0732 51.1273 50.2975 56.3239 54.0273C56.1312 54.1696 55.9287 54.298 55.7179 54.4117C49.627 57.7066 45.3978 59.0679 43.1479 58.4569C43.1261 58.451 43.104 58.4461 43.0817 58.4424C25.1756 55.3925 4.6071 34.8242 1.55747 16.9176C1.55374 16.8953 1.54889 16.8732 1.54294 16.8514C0.931933 14.6016 2.29304 10.3731 5.58794 4.28152ZM46.8417 12.172C46.7348 12.1103 46.6136 12.0778 46.4902 12.0778C46.3667 12.0778 46.2455 12.1103 46.1386 12.172L31.9357 20.3721C31.8288 20.4338 31.7401 20.5226 31.6783 20.6295C31.6166 20.7364 31.5841 20.8576 31.5841 20.9811C31.5841 21.1045 31.6166 21.2257 31.6783 21.3326C31.7401 21.4395 31.8288 21.5283 31.9357 21.59L46.1386 29.7901C46.2455 29.8518 46.3668 29.8843 46.4903 29.8843C46.6137 29.8843 46.735 29.8517 46.8419 29.79C46.9488 29.7282 47.0376 29.6394 47.0992 29.5324C47.1609 29.4255 47.1933 29.3042 47.1933 29.1807V24.8345C50.8312 23.9006 53.9569 21.7817 56.2594 18.6807C58.5436 15.6045 59.8711 11.6755 59.9976 7.61764C60.0027 7.45864 59.9538 7.30261 59.8587 7.17503C59.7637 7.04746 59.6282 6.95588 59.4744 6.91527C59.3206 6.87465 59.1576 6.88739 59.0119 6.95141C58.8663 7.01543 58.7467 7.12694 58.6726 7.26773C56.728 10.9573 53.1787 15.5274 47.1933 16.8335V12.7809C47.1933 12.6575 47.1608 12.5362 47.0991 12.4294C47.0374 12.3225 46.9486 12.2337 46.8417 12.172ZM58.2533 10.665C57.002 17.21 52.4817 22.2365 46.3385 23.5929C46.1822 23.6275 46.0423 23.7143 45.942 23.8392C45.8417 23.964 45.787 24.1194 45.787 24.2795V27.9634L33.6935 20.981L45.787 13.9987V17.6826C45.787 17.7845 45.8092 17.8851 45.8519 17.9776C45.8946 18.07 45.9569 18.1521 46.0345 18.2181C46.112 18.2841 46.203 18.3325 46.3011 18.3599C46.3992 18.3872 46.5021 18.393 46.6027 18.3767C51.266 17.6203 55.2464 14.9738 58.2533 10.665Z" fill="#064685"/>
</svg>
