<svg width="182" height="180" viewBox="0 0 182 180" fill="none" xmlns="http://www.w3.org/2000/svg">
<path d="M88.645 37.7728C88.645 40.3748 89.658 42.8211 91.4982 44.6608C93.338 46.5003 95.7842 47.514 98.3859 47.514C100.988 47.514 103.434 46.5006 105.274 44.6608L123.961 25.9728C128.152 21.7824 133.733 19.4747 139.677 19.4747C145.621 19.4747 151.202 21.7824 155.393 25.9728C159.583 30.1628 161.89 35.7442 161.89 41.6883C161.89 47.6324 159.583 53.2137 155.393 57.4037L115.888 96.9086C107.223 105.575 93.123 105.575 84.4571 96.9086C82.6173 95.0692 80.1711 94.0558 77.569 94.0558C74.9673 94.0558 72.5211 95.0692 70.6813 96.909C68.8415 98.7488 67.8281 101.195 67.8281 103.797C67.8281 106.399 68.8412 108.845 70.6813 110.685C78.547 118.55 89.0205 122.882 100.173 122.882C111.325 122.882 121.798 118.55 129.664 110.684L135.428 104.92C136.465 103.883 136.465 102.201 135.428 101.163C134.39 100.126 132.708 100.126 131.671 101.163L125.907 106.928C119.045 113.789 109.906 117.569 100.173 117.569C90.4398 117.569 81.3007 113.789 74.4385 106.928C73.6022 106.092 73.1417 104.979 73.1417 103.797C73.1417 102.614 73.6022 101.502 74.4385 100.666C76.1653 98.9397 78.9742 98.9393 80.7003 100.666C86.0695 106.035 93.1198 108.719 100.173 108.718C107.224 108.718 114.277 106.034 119.646 100.666L159.15 61.1616C164.344 55.9677 167.204 49.052 167.204 41.6886C167.204 34.3256 164.344 27.4095 159.15 22.2157C153.956 17.0218 147.04 14.1615 139.677 14.1619C132.313 14.1619 125.398 17.0222 120.204 22.216L101.516 40.9037C100.68 41.74 99.5683 42.2008 98.3855 42.2008C97.2028 42.2008 96.0909 41.74 95.2546 40.9037C93.5282 39.1772 93.5282 36.3683 95.2546 34.6419L113.942 15.9542C120.805 9.09199 129.944 5.31287 139.677 5.31287C149.41 5.31287 158.549 9.09199 165.411 15.9542C179.601 30.1444 179.601 53.2328 165.411 67.4227L139.676 93.1575C138.639 94.1953 138.639 95.8771 139.676 96.9146C140.714 97.9518 142.396 97.9518 143.433 96.9146L169.168 71.1799C185.429 54.9182 185.429 28.459 169.168 12.1967C161.303 4.33169 150.829 0 139.677 0C128.525 0 118.051 4.33169 110.186 12.1974L91.4982 30.8847C89.6584 32.7245 88.645 35.1711 88.645 37.7728Z" fill="#064685"/>
<path d="M90.3665 135.338C88.5267 133.499 86.0805 132.485 83.4788 132.485C80.8771 132.485 78.4308 133.498 76.591 135.338L57.9034 154.026C49.2375 162.692 35.1376 162.692 26.4721 154.026C22.2817 149.836 19.9744 144.255 19.9744 138.311C19.9744 132.367 22.2821 126.785 26.4721 122.595L65.9763 83.091C74.6422 74.4244 88.742 74.4248 97.4076 83.091C99.2474 84.9305 101.694 85.9439 104.296 85.9439C106.897 85.9439 109.344 84.9305 111.183 83.0907C113.023 81.2509 114.037 78.8043 114.037 76.203C114.037 73.6009 113.023 71.1547 111.183 69.3149C94.9217 53.0543 68.4625 53.0547 52.2009 69.3153L42.6491 78.8674C41.6116 79.9049 41.6116 81.5867 42.6491 82.6242C43.6866 83.6613 45.3688 83.6617 46.4059 82.6238L55.9577 73.0721C70.1479 58.8829 93.2367 58.8822 107.426 73.0721C108.262 73.908 108.723 75.0202 108.723 76.203C108.723 77.3853 108.262 78.4976 107.426 79.3335C106.59 80.1698 105.478 80.6306 104.295 80.6306C103.113 80.6306 102.001 80.1702 101.165 79.3339C90.4277 68.5965 72.9572 68.5965 62.2195 79.3339L22.7146 118.838C17.5207 124.032 14.6605 130.947 14.6605 138.311C14.6605 145.674 17.5207 152.59 22.7146 157.784C33.4519 168.521 50.9225 168.521 61.6598 157.783L80.3475 139.096C82.0739 137.369 84.8829 137.369 86.6093 139.096C88.3358 140.822 88.3358 143.631 86.6093 145.357L67.9216 164.045C61.0594 170.907 51.9203 174.686 42.1872 174.686C32.4541 174.686 23.315 170.907 16.4528 164.045C2.26293 149.855 2.26293 126.766 16.4528 112.577L38.3996 90.6294C39.4371 89.5916 39.4371 87.9098 38.3996 86.8723C37.3621 85.8351 35.6799 85.8351 34.6428 86.8723L12.696 108.819C-3.56533 125.081 -3.56533 151.54 12.696 167.803C20.5617 175.668 31.0351 180 42.1872 180C53.3393 180 63.8131 175.668 71.6784 167.803L90.3661 149.115C94.1644 145.316 94.1644 139.136 90.3665 135.338Z" fill="#064685"/>
<path d="M74.8713 22.0879C75.0657 22.0879 75.2634 22.0662 75.461 22.0213C80.5143 20.8764 85.7195 20.2955 90.9324 20.2955C92.3996 20.2955 93.5891 19.1064 93.5891 17.6389C93.5891 16.1714 92.3996 14.9823 90.9324 14.9823C85.3249 14.9823 79.7247 15.6071 74.2868 16.8394C72.8558 17.1636 71.9589 18.5868 72.283 20.0175C72.5625 21.2512 73.6581 22.0879 74.8713 22.0879Z" fill="#064685"/>
<path d="M18.5707 92.6562C20.0378 92.6562 21.2273 91.4671 21.2273 89.9996C21.2273 75.8065 25.4665 62.1508 33.487 50.5092C41.3237 39.1347 52.2154 30.4135 64.9852 25.288C66.3468 24.7418 67.0074 23.195 66.4612 21.833C65.9147 20.4718 64.3678 19.8097 63.0062 20.3574C49.2634 25.8728 37.5428 35.2567 29.1118 47.4948C20.4778 60.027 15.9141 74.7251 15.9141 89.9996C15.9141 91.4667 17.1032 92.6562 18.5707 92.6562Z" fill="#064685"/>
<path d="M165.949 89.9996C165.949 88.5321 164.76 87.343 163.292 87.343C161.825 87.343 160.636 88.5321 160.636 89.9996C160.636 128.434 129.367 159.703 90.932 159.703C89.4648 159.703 88.2754 160.893 88.2754 162.36C88.2754 163.828 89.4648 165.017 90.932 165.017C132.297 165.017 165.949 131.364 165.949 89.9996Z" fill="#064685"/>
<path d="M20.836 26.1347C21.3546 26.6533 22.0347 26.9125 22.7145 26.9125C23.3942 26.9125 24.0743 26.6533 24.5929 26.1347C25.6303 25.0968 25.6303 23.415 24.5929 22.3775L19.3611 17.1458C18.3236 16.1086 16.6414 16.1086 15.6043 17.1458C14.5668 18.1836 14.5668 19.8654 15.6043 20.9029L20.836 26.1347Z" fill="#064685"/>
<path d="M5.24108 38.9182L12.2173 41.3822C12.5099 41.4852 12.8085 41.5345 13.1022 41.5345C14.1967 41.5345 15.2218 40.8526 15.6072 39.762C16.0956 38.3784 15.3706 36.861 13.987 36.3721L7.01074 33.9082C5.62753 33.4201 4.10972 34.1455 3.62126 35.5284C3.13244 36.912 3.85752 38.4294 5.24108 38.9182Z" fill="#064685"/>
<path d="M36.3552 15.7318C36.742 16.8199 37.7657 17.499 38.8585 17.499C39.1539 17.499 39.4542 17.4494 39.7482 17.3445C41.1307 16.8532 41.853 15.334 41.3617 13.9515L38.8832 6.9802C38.3919 5.59769 36.8727 4.87474 35.4902 5.3671C34.1077 5.8584 33.3855 7.37762 33.8768 8.76013L36.3552 15.7318Z" fill="#064685"/>
<path d="M158.554 156.339C157.517 155.302 155.835 155.302 154.798 156.339C153.76 157.377 153.76 159.059 154.798 160.096L160.029 165.328C160.548 165.847 161.228 166.106 161.908 166.106C162.588 166.106 163.268 165.847 163.786 165.328C164.824 164.29 164.824 162.608 163.786 161.571L158.554 156.339Z" fill="#064685"/>
<path d="M144.559 166.944C144.07 165.561 142.552 164.836 141.169 165.324C139.786 165.813 139.06 167.33 139.549 168.713L142.013 175.69C142.398 176.781 143.423 177.462 144.518 177.462C144.812 177.462 145.11 177.413 145.403 177.31C146.786 176.821 147.512 175.304 147.023 173.921L144.559 166.944Z" fill="#064685"/>
<path d="M173.95 142.048L166.979 139.57C165.596 139.078 164.077 139.801 163.586 141.184C163.094 142.566 163.817 144.085 165.199 144.576L172.171 147.054C172.465 147.159 172.765 147.209 173.06 147.209C174.153 147.209 175.177 146.53 175.564 145.441C176.055 144.059 175.333 142.54 173.95 142.048Z" fill="#064685"/>
</svg>
