<svg width="183" height="180" viewBox="0 0 183 180" fill="none" xmlns="http://www.w3.org/2000/svg">
<path d="M180.607 110.031C178.72 106.767 175.664 104.429 172.001 103.448C168.338 102.467 164.521 102.964 161.254 104.849L119.162 129.136C119.304 128.754 119.429 128.362 119.537 127.96C120.418 124.673 119.961 121.23 118.249 118.266C116.536 115.302 113.782 113.185 110.492 112.304L68.8158 101.144C65.0541 99.9286 60.446 100.405 57.0479 102.366L28.1568 119.036L25.8016 114.959C24.6769 113.012 22.8552 111.618 20.6724 111.033C18.4903 110.449 16.2146 110.745 14.2663 111.87L4.72042 117.377C0.688317 119.704 -0.698648 124.876 1.62984 128.906L28.7098 175.782C29.8344 177.729 31.6562 179.122 33.8394 179.707C34.5706 179.903 35.3122 180 36.0486 180C37.5097 180 38.9502 179.618 40.2454 178.871L49.7909 173.363C53.8234 171.036 55.21 165.864 52.8819 161.835L50.5266 157.758L54.5514 155.436C56.415 154.36 57.1437 154.382 59.9602 155.007L101.526 166.138C103.017 166.537 104.531 166.734 106.036 166.734C109.058 166.734 112.047 165.939 114.745 164.382L175.421 129.373C178.687 127.488 181.027 124.433 182.008 120.772C182.99 117.11 182.492 113.296 180.606 110.032L180.607 110.031ZM46.8563 168.282L37.3108 173.789C36.7212 174.13 36.0288 174.219 35.3595 174.04C34.6913 173.861 34.1355 173.437 33.7946 172.848L6.71464 125.972C6.00465 124.744 6.42734 123.167 7.65617 122.458L17.202 116.95C17.792 116.61 18.4844 116.521 19.1529 116.7C19.8211 116.879 20.377 117.302 20.7179 117.892L47.7982 164.768C48.5082 165.996 48.0851 167.572 46.8563 168.282ZM176.339 119.253C175.763 121.401 174.395 123.19 172.487 124.291L111.811 159.301C109.127 160.849 106.014 161.265 103.046 160.47L61.4194 149.323C61.379 149.313 61.3383 149.303 61.2972 149.293C57.8782 148.533 55.3575 148.196 51.6167 150.354L47.5919 152.676L31.0929 124.117L59.984 107.447C61.9602 106.307 64.8688 106.017 67.0564 106.741C67.1104 106.759 67.165 106.776 67.2201 106.791L108.973 117.971C110.748 118.447 112.237 119.593 113.165 121.2C114.093 122.806 114.342 124.668 113.866 126.442C112.898 130.053 109.244 132.117 105.548 131.139L74.1516 122.832C72.5823 122.417 70.9774 123.35 70.5627 124.917C70.1477 126.483 71.0819 128.089 72.649 128.503L104.033 136.808C104.036 136.809 104.038 136.81 104.04 136.81H104.041L109.043 138.133C112.748 139.113 114.846 138.401 119.683 135.61L164.19 109.93C166.099 108.829 168.332 108.539 170.482 109.115C172.631 109.69 174.421 111.057 175.523 112.965C176.625 114.873 176.915 117.106 176.339 119.253H176.339ZM16.4832 68.3485L21.0628 69.3896C21.4656 70.5663 21.943 71.7177 22.4923 72.835L19.9895 76.8085C18.3072 79.4799 18.4679 82.4523 20.3979 84.3811L24.4388 88.4192C26.3696 90.3484 29.3435 90.509 32.0161 88.8273L35.9939 86.3253C37.1119 86.8743 38.2633 87.3514 39.4397 87.7536L40.4817 92.3318C41.1822 95.4091 43.3984 97.3977 46.1287 97.3977H51.8427C54.5726 97.3977 56.7889 95.4091 57.4897 92.3318L58.5314 87.7551C59.7088 87.3528 60.861 86.8754 61.979 86.3265L65.9553 88.8273C68.6272 90.5079 71.6019 90.3484 73.5326 88.4188L77.5728 84.3811C79.5035 82.452 79.6639 79.4795 77.9815 76.8085L75.4776 72.8332C76.0269 71.7159 76.5043 70.5652 76.9068 69.3896L81.4882 68.3485C84.5674 67.6485 86.5569 65.4333 86.5569 62.7051V56.9946C86.5569 54.266 84.567 52.0508 81.4882 51.3511L76.9086 50.3105C76.5058 49.1337 76.0284 47.9823 75.4791 46.8646L77.9815 42.8911C79.6639 40.2201 79.5032 37.2473 77.5728 35.3182L73.5326 31.2805C71.6022 29.3513 68.6283 29.1911 65.9549 30.872L61.9771 33.374C60.8591 32.825 59.7077 32.3479 58.5314 31.946L57.4893 27.3675C56.7888 24.2902 54.5726 22.3016 51.8424 22.3016H46.1283C43.3984 22.3016 41.1822 24.2902 40.4814 27.3675L39.4393 31.9457C38.2626 32.3479 37.1112 32.825 35.9935 33.374L32.0157 30.872C29.3431 29.1903 26.3685 29.3506 24.4384 31.2801L20.3975 35.3178C18.4672 37.247 18.3068 40.2198 19.9891 42.8904L22.4923 46.865C21.943 47.9827 21.4653 49.1337 21.0628 50.3094L16.4828 51.3504C13.4029 52.0501 11.4134 54.2653 11.4134 56.9938V62.7044C11.4134 65.4326 13.4033 67.6478 16.4825 68.3478L16.4832 68.3485ZM17.2849 57.2461C17.3895 57.1922 17.555 57.1244 17.7854 57.0723L24.0187 55.6554C25.0736 55.4156 25.9113 54.6151 26.1978 53.5722C26.7134 51.6973 27.4652 49.8862 28.4317 48.1888C28.9674 47.2486 28.9417 46.0902 28.3649 45.1749L24.958 39.7654C24.8322 39.566 24.7632 39.4013 24.7272 39.2891L28.4118 35.6068C28.5245 35.6423 28.6892 35.7116 28.8888 35.8374L34.302 39.2425C35.2186 39.819 36.3773 39.8446 37.3178 39.3093C39.0155 38.3438 40.8274 37.5928 42.7046 37.0772C43.7477 36.7904 44.5483 35.9536 44.7887 34.899L46.2065 28.6689C46.2589 28.439 46.3261 28.2736 46.3804 28.1687H51.591C51.6453 28.2736 51.7128 28.4386 51.7653 28.6685L53.1831 34.899C53.4231 35.9533 54.2241 36.7904 55.2672 37.0772C57.1433 37.5928 58.9559 38.3438 60.6544 39.3093C61.5948 39.8439 62.7528 39.8182 63.6697 39.2422L69.0829 35.837C69.2829 35.7113 69.4473 35.6423 69.5599 35.6068L73.2446 39.2891C73.2086 39.4013 73.1396 39.566 73.0138 39.7654L69.6076 45.1734C69.0312 46.0891 69.0051 47.2471 69.5405 48.1869C70.5066 49.8836 71.2584 51.6955 71.7747 53.5726C72.0616 54.6151 72.8989 55.4156 73.9538 55.6554L80.1867 57.0719C80.4168 57.1244 80.5819 57.1915 80.6865 57.2458V62.4536C80.5819 62.5078 80.4168 62.5753 80.1864 62.6274L73.9524 64.0443C72.8975 64.2841 72.0601 65.0842 71.7732 66.1267C71.2573 68.0024 70.5055 69.8135 69.5394 71.5105C69.0041 72.4504 69.0297 73.6088 69.6065 74.524L73.0138 79.9339C73.1396 80.1334 73.2086 80.298 73.2446 80.4102L69.5599 84.0926C69.4473 84.057 69.2829 83.9877 69.0829 83.8619L63.6716 80.4579C62.7554 79.8818 61.597 79.8561 60.6558 80.3908C58.9581 81.3563 57.1451 82.1076 55.2669 82.6236C54.2237 82.9103 53.4231 83.7471 53.1827 84.8014L51.7653 91.03C51.7128 91.26 51.6457 91.4253 51.591 91.5302H46.3804C46.3264 91.4253 46.2589 91.2603 46.2065 91.03L44.7887 84.7999C44.5487 83.7457 43.7481 82.9089 42.7046 82.6221C40.8285 82.1062 39.0159 81.3552 37.3174 80.3897C36.377 79.8547 35.2182 79.8803 34.302 80.4568L28.8892 83.8619C28.6892 83.9877 28.5245 84.057 28.4118 84.0926L24.7272 80.4102C24.7632 80.2976 24.8322 80.1334 24.958 79.9339L28.3641 74.5259C28.9406 73.6102 28.9666 72.4522 28.4313 71.5124C27.4652 69.8157 26.7134 68.0038 26.1971 66.1267C25.9102 65.0842 25.0729 64.2837 24.018 64.0439L17.7854 62.6274C17.555 62.5749 17.3895 62.5075 17.2849 62.4532V57.2458V57.2461ZM48.9859 77.5808C58.7688 77.5808 66.7277 69.6268 66.7277 59.85C66.7277 50.0732 58.7691 42.1192 48.9859 42.1192C39.2026 42.1192 31.2437 50.0732 31.2437 59.85C31.2437 69.6268 39.2026 77.5808 48.9859 77.5808ZM48.9859 47.9864C55.5314 47.9864 60.8569 53.3082 60.8569 59.85C60.8569 66.3918 55.5314 71.7137 48.9859 71.7137C42.4404 71.7137 37.1145 66.3915 37.1145 59.85C37.1145 53.3086 42.44 47.9864 48.9859 47.9864ZM96.3658 37.3533H102.958C104.386 43.1849 107.966 48.1818 112.81 51.4457C106.17 53.2807 100.105 56.472 95.0727 60.8606C85.6652 69.0647 80.6909 80.6845 80.6865 94.4638C80.6865 95.2419 80.9954 95.9885 81.5462 96.5385C82.0966 97.0889 82.8432 97.3981 83.6218 97.3981H168.649C170.27 97.3981 171.584 96.0849 171.585 94.4652C171.589 80.6178 166.683 68.9792 157.399 60.8082C152.357 56.3712 146.24 53.1633 139.525 51.3511C139.968 51.0468 140.406 50.7307 140.833 50.3944C140.96 50.2943 141.073 50.184 141.179 50.0684H145.172C147.184 50.0684 148.824 48.4623 148.886 46.466L153.086 46.4257C155.816 46.3997 158.035 44.1687 158.035 41.4526V36.7835C160.784 35.6504 162.724 32.9464 162.724 29.7954V23.7031C162.724 19.5356 159.332 16.1452 155.162 16.1452H155.148C155.095 16.0311 155.036 15.9186 154.966 15.8097C148.633 5.91001 137.841 0 126.098 0C114.189 0 103.323 6.03469 97.0189 16.1452H96.3654C92.1957 16.1452 88.8032 19.5356 88.8032 23.7031V29.7954C88.8032 33.9629 92.1957 37.3533 96.3654 37.3533H96.3658ZM108.143 31.6934C108.143 21.8018 116.195 13.7547 126.092 13.7547C135.99 13.7547 144.042 21.8018 144.042 31.6934C144.042 33.5199 143.769 35.3053 143.235 37.0211H131.55C129.499 37.0211 127.83 38.6888 127.83 40.739V46.3502C127.83 47.5749 128.429 48.6603 129.346 49.338C128.284 49.5305 127.197 49.6317 126.092 49.6317C116.195 49.6317 108.143 41.585 108.143 31.6934ZM165.631 91.5306H86.6427C88.1023 66.7974 107.908 55.4985 126.363 55.4985H126.376C144.621 55.504 164.203 66.808 165.631 91.5306ZM143.021 44.201H133.701V42.8882H143.021V44.201ZM148.885 40.5982C148.869 40.1736 148.782 39.7673 148.635 39.3903C148.865 38.7189 149.067 38.0401 149.235 37.353H152.165V40.5667L148.885 40.5982H148.885ZM156.854 23.7028V29.795C156.854 30.7118 156.079 31.4858 155.162 31.4858H149.908C149.879 28.1156 149.143 24.9121 147.846 22.0116H155.162C156.079 22.0116 156.854 22.7864 156.854 23.7028ZM126.098 5.86674C134.653 5.86674 142.598 9.65433 147.96 16.1448H144.107C139.736 11.0936 133.284 7.8876 126.092 7.8876C118.901 7.8876 112.449 11.0932 108.078 16.1448H104.234C109.592 9.64956 117.518 5.86674 126.098 5.86674ZM94.6743 23.7028C94.6743 22.786 95.4488 22.0119 96.3658 22.0119H104.339C103.041 24.9125 102.306 28.1159 102.277 31.4862H96.3658C95.4488 31.4862 94.6743 30.7118 94.6743 29.7954V23.7028Z" fill="#064685"/>
</svg>
