<svg width="46" height="46" viewBox="0 0 46 46" fill="none" xmlns="http://www.w3.org/2000/svg">
<path d="M8.35623 40.0553C0.0686249 33.9318 -2.32701 22.3293 2.39952 13.1762C7.19079 3.8297 17.9388 -1.19805 27.3271 1.44474C39.4995 4.86104 43.5138 19.4286 34.773 28.3239C34.255 28.8396 33.6723 29.1619 33.0896 29.6131C33.478 27.0992 34.3198 24.7142 34.1903 22.3293C33.6723 14.9165 26.4206 10.1466 18.9747 12.0159C7.64402 14.9165 1.88154 27.8082 7.32028 38.1216C7.64402 38.7662 8.0325 39.4107 8.35623 40.0553Z" fill="#064685"/>
<path d="M11.9817 18.0752C11.658 19.6222 11.3343 20.6535 11.2695 21.6848C10.3631 29.4198 16.773 35.7368 24.6074 34.7699C36.974 33.2229 44.0962 21.427 39.6287 9.82448C39.4344 9.37328 39.3049 8.85761 38.9812 8.08411C44.8084 12.854 46.9451 22.5873 44.1609 30.6446C40.0171 42.6338 26.2908 49.0797 15.8665 43.9874C6.54299 39.4754 3.88837 27.6795 10.2336 19.6866C10.622 19.171 11.14 18.8487 11.9817 18.0752Z" fill="#064685"/>
</svg>
