<svg width="322" height="321" viewBox="0 0 322 321" fill="none" xmlns="http://www.w3.org/2000/svg">
<path d="M59.3034 280.423C0.487024 236.742 -16.5146 153.977 17.0291 88.6853C51.0323 22.0138 127.31 -13.8508 193.938 5.00111C280.324 29.3707 308.813 133.286 246.78 196.739C243.104 200.418 238.969 202.717 234.833 205.935C237.59 188.003 243.564 170.99 242.645 153.977C238.969 101.1 187.505 67.0746 134.662 80.4089C54.2488 101.1 13.3531 193.061 51.9513 266.629C54.2488 271.227 57.0058 275.825 59.3034 280.423Z" fill="#A2B8CB"/>
<path d="M85.0336 123.631C82.7361 134.667 80.4385 142.023 79.979 149.38C73.546 204.557 119.037 249.617 174.637 242.72C262.402 231.685 312.947 147.541 281.241 64.7765C279.863 61.5579 278.944 57.8795 276.646 52.3618C318.001 86.3873 333.165 155.818 313.406 213.293C283.998 298.816 186.584 344.797 112.604 308.472C46.4354 276.286 27.5957 192.142 72.627 135.126C75.384 131.448 79.06 129.149 85.0336 123.631Z" fill="#A2B8CB"/>
</svg>
