<svg width="30" height="30" viewBox="0 0 30 30" fill="none" xmlns="http://www.w3.org/2000/svg">
<path d="M5.52516 26.2078C0.0453749 22.1254 -1.53862 14.3904 1.58657 8.28835C4.75457 2.05737 11.8612 -1.29447 18.0687 0.467393C26.1172 2.74492 28.7714 12.4567 22.992 18.3868C22.6495 18.7306 22.2642 18.9455 21.8789 19.2463C22.1358 17.5704 22.6923 15.9804 22.6067 14.3904C22.2642 9.4486 17.4694 6.26865 12.5461 7.51484C5.05424 9.4486 1.24408 18.043 4.84019 24.9186C5.05424 25.3483 5.3111 25.7781 5.52516 26.2078Z" fill="#064685"/>
<path d="M7.92353 11.5543C7.70947 12.5857 7.49542 13.2732 7.45261 13.9608C6.85326 19.1175 11.0915 23.3288 16.2716 22.6842C24.4485 21.6528 29.1577 13.7889 26.2037 6.0539C26.0753 5.75309 25.9897 5.40931 25.7756 4.89365C29.6286 8.07359 31.0414 14.5624 29.2005 19.9339C26.4606 27.9268 17.3847 32.224 10.4922 28.8292C4.32742 25.8211 2.57218 17.9572 6.76763 12.6287C7.0245 12.2849 7.36699 12.07 7.92353 11.5543Z" fill="#064685"/>
</svg>
