<svg width="62" height="60" viewBox="0 0 62 60" fill="none" xmlns="http://www.w3.org/2000/svg">
<path d="M55.8187 26.7674C55.4079 26.3565 54.852 26.1269 54.2598 26.1269C54.0302 26.1269 53.8127 26.1631 53.6073 26.2236V21.6677C53.6073 20.4592 52.6163 19.4683 51.4079 19.4683H47.2387C46.0302 19.4683 45.0393 20.4592 45.0393 21.6677C45.0393 22.8761 46.0302 23.8671 47.2387 23.8671H49.2085V26.2236C49.003 26.1631 48.7855 26.1269 48.5559 26.1269C47.9637 26.1269 47.4199 26.3565 46.997 26.7674C46.139 27.6254 46.139 29.0151 46.997 29.8731L49.8489 32.7251C50.2598 33.136 50.8157 33.3656 51.4079 33.3656C52 33.3656 52.5438 33.136 52.9668 32.7251L55.8187 29.8731C56.6767 29.0272 56.6767 27.6375 55.8187 26.7674ZM54.9728 29.0272L52.1208 31.8792C51.7341 32.2659 51.1057 32.2659 50.719 31.8792L47.8671 29.0272C47.4804 28.6405 47.4804 28.0121 47.8671 27.6254C48.2538 27.2387 48.8822 27.2387 49.2689 27.6254L50.429 28.7855V22.6586H47.2508C46.707 22.6586 46.2598 22.2115 46.2598 21.6677C46.2598 21.1239 46.707 20.6767 47.2508 20.6767H51.4199C51.9637 20.6767 52.4109 21.1239 52.4109 21.6677V28.7855L53.571 27.6254C53.9577 27.2387 54.5861 27.2387 54.9728 27.6254C55.3595 28.0121 55.3595 28.6405 54.9728 29.0272ZM61.8731 26.429C61.8731 21.1722 58.2115 16.7613 53.3051 15.6012V13.7764C53.3051 9.83686 50.0906 6.62236 46.1511 6.62236H38.5499L34.006 2.09063C32.6526 0.749245 30.8641 0 28.9547 0C27.0453 0 25.2568 0.749245 23.9033 2.09063L19.3595 6.62236H11.7946C7.85499 6.62236 4.64048 9.83686 4.64048 13.7764V21.281L0.350453 25.571C0.120846 25.8006 0 26.1027 0 26.429V52.8459C0 56.7855 3.2145 60 7.15408 60H50.7553C54.6949 60 57.9094 56.7855 57.9094 52.8459V34.9245C60.3263 32.8822 61.8731 29.8369 61.8731 26.429ZM60.6647 26.429C60.6647 31.9033 56.2296 36.3384 50.7553 36.3384C45.281 36.3384 40.8459 31.9033 40.8459 26.429C40.8459 20.9547 45.281 16.5196 50.7553 16.5196C56.2296 16.5196 60.6647 20.9547 60.6647 26.429ZM24.7613 2.94864C27.0816 0.640483 30.8399 0.640483 33.1601 2.94864L36.8459 6.62236H21.0634L24.7613 2.94864ZM5.86103 13.7885C5.86103 10.5015 8.51964 7.8429 11.8066 7.8429H46.1631C49.4502 7.8429 52.1088 10.5015 52.1088 13.7885V15.3837C51.6737 15.3353 51.2145 15.2991 50.7674 15.2991C44.6405 15.2991 39.6496 20.29 39.6496 26.4169C39.6496 30.574 41.9335 34.1994 45.3172 36.1088L40.5317 40.8822L34.006 34.3565C32.6526 33.003 30.852 32.2659 28.9426 32.2659C27.0332 32.2659 25.2326 33.0151 23.8792 34.3565L17.3172 40.9184L5.83686 29.4381V13.7885H5.86103ZM4.65257 22.997V28.2296L2.06647 25.6435C2.05438 25.6314 2.0423 25.6193 2.03021 25.6073L4.65257 22.997ZM1.20846 52.8459V26.5015L16.4834 41.7764L2.17523 56.0846C1.55891 55.1541 1.20846 54.0423 1.20846 52.8459ZM50.7553 58.7915H7.15408C5.49849 58.7915 4.01208 58.1148 2.93656 57.0272L24.7492 35.2145C27.0695 32.8943 30.8399 32.8943 33.1601 35.2145L54.9728 57.0272C53.8973 58.1269 52.4109 58.7915 50.7553 58.7915ZM56.7009 52.8459C56.7009 54.0423 56.3505 55.1541 55.7341 56.0846L41.3897 41.7402L46.4532 36.6767C47.7825 37.2326 49.2326 37.5468 50.7553 37.5468C52.9426 37.5468 54.9849 36.9184 56.7009 35.8187V52.8459Z" fill="#064685"/>
</svg>
