<svg width="100" height="100" viewBox="0 0 100 100" fill="none" xmlns="http://www.w3.org/2000/svg">
<path d="M87.0433 24.1833C87.98 24.1833 88.8831 23.8117 89.5493 23.1452L99.3673 13.3272C100.679 12.0153 99.8249 9.76376 97.9765 9.64774L92.7519 9.31981L96.1611 5.91062C96.7331 5.33855 96.7331 4.411 96.1611 3.83913C95.5888 3.26705 94.6614 3.26705 94.0894 3.83913L90.6802 7.24832L90.3523 2.02369C90.236 0.171926 87.9823 -0.676514 86.6728 0.632866L76.8546 10.4509C76.1356 11.1698 75.76 12.1642 75.8237 13.1788L76.1612 18.5554C67.967 11.5686 57.4062 7.56199 46.2191 7.56199C20.6741 7.56199 0 28.2335 0 53.7809C0 65.3104 4.26955 76.3532 12.0225 84.8748C12.5672 85.473 13.4936 85.5167 14.0918 84.9724C14.6903 84.4279 14.734 83.5015 14.1897 82.9031C6.92854 74.9222 2.9297 64.5798 2.9297 53.7809C2.9297 29.9111 22.3493 10.4915 46.2191 10.4915C57.4051 10.4915 67.9309 14.7786 75.8042 22.1242L69.1202 28.808C63.0754 23.2593 55.0271 19.8638 46.2191 19.8638C27.5173 19.8638 12.3022 35.0789 12.3022 53.7807C12.3022 59.1631 13.6006 64.5243 16.0577 69.2849C16.0579 69.2851 16.0579 69.2852 16.0581 69.2854C21.7512 80.3169 33.2171 87.6976 46.2193 87.6976C62.2406 87.6976 76.1749 76.3814 79.4315 60.6768C79.5958 59.8846 79.0868 59.1092 78.2946 58.945C77.5026 58.7807 76.7272 59.2897 76.563 60.0819C73.5965 74.3858 60.8354 84.7679 46.2195 84.7679C34.5771 84.7679 24.0173 78.3204 18.6616 67.9419C18.6616 67.9417 18.6614 67.9415 18.6614 67.9413C16.386 63.5321 15.2321 58.7678 15.2321 53.7807C15.2321 36.6943 29.1329 22.7935 46.2193 22.7935C54.2213 22.7935 61.5373 25.8603 67.0492 30.8789L60.4248 37.5033C56.6232 34.1814 51.6525 32.1658 46.2193 32.1658C34.3009 32.1658 24.6046 41.8621 24.6046 53.7805C24.6046 65.6989 34.3009 75.3952 46.2193 75.3952C58.1377 75.3952 67.8342 65.6989 67.8342 53.7805C67.8342 48.3473 65.8186 43.3766 62.4965 39.575L69.1213 32.9502C74.101 38.4178 77.1606 45.6631 77.2059 53.6002C77.2104 54.4063 77.8655 55.0567 78.6706 55.0567H78.6792C79.4882 55.052 80.1401 54.3924 80.1356 53.5834C80.0856 44.8461 76.6987 36.8748 71.193 30.8783L77.8774 24.1939C85.1913 32.014 89.5085 42.4773 89.5085 53.7803C89.5083 77.6507 70.0889 97.0703 46.2191 97.0703C36.3306 97.0703 26.6614 93.6496 18.9928 87.4384C18.3637 86.9295 17.4421 87.0261 16.9325 87.6546C16.4233 88.2834 16.5202 89.2058 17.1487 89.715C25.3374 96.3475 35.6614 100 46.2191 100C71.7641 100 92.4382 79.3284 92.4382 53.7809C92.4382 43.7783 89.2948 34.2586 83.3483 26.2511C82.7327 25.422 82.0915 24.6183 81.4288 23.8376C87.1712 24.1984 86.8616 24.1833 87.0433 24.1833ZM64.9043 53.7809C64.9043 64.0839 56.5223 72.4659 46.2191 72.4659C35.9161 72.4659 27.5341 64.0839 27.5341 53.7809C27.5341 43.4779 35.9161 35.0959 46.2191 35.0959C50.8445 35.0959 55.082 36.7859 58.3484 39.5799L51.6824 46.2459C50.1465 45.1293 48.259 44.4682 46.2191 44.4682C41.0841 44.4682 36.9064 48.6459 36.9064 53.7809C36.9064 58.9159 41.0841 63.0936 46.2191 63.0936C51.3543 63.0936 55.532 58.9159 55.532 53.7809C55.532 51.7409 54.8709 49.8533 53.7543 48.3176L60.4203 41.6516C63.2141 44.918 64.9043 49.1555 64.9043 53.7809ZM45.1832 54.8168C45.7554 55.3889 46.6828 55.3889 47.2548 54.8168L51.6459 50.4258C52.2513 51.4014 52.6021 52.5508 52.6021 53.7811C52.6021 57.3008 49.7386 60.1641 46.2189 60.1641C42.6992 60.1641 39.8359 57.3006 39.8359 53.7811C39.8359 50.2615 42.6992 47.3981 46.2189 47.3981C47.4492 47.3981 48.5986 47.7488 49.5742 48.3541L45.183 52.7453C44.6111 53.3172 44.6111 54.2448 45.1832 54.8168ZM78.7477 12.9952C78.7366 12.8192 78.8018 12.6468 78.9264 12.5224L87.5354 3.91354L87.9181 10.0104L79.113 18.8155L78.7477 12.9952ZM81.1846 20.887L89.9898 12.0819L96.0867 12.4645L87.4776 21.0736C87.3532 21.1982 87.1794 21.2644 87.0048 21.2523L81.1846 20.887Z" fill="#064685"/>
</svg>
