<svg width="70" height="60" viewBox="0 0 70 60" fill="none" xmlns="http://www.w3.org/2000/svg">
<path d="M68.7723 35.6737C68.0456 35.5135 62.2301 34.2323 61.5299 34.078C64.3944 29.548 67.5389 23.8251 67.5389 20.5252C67.5389 14.3869 62.5433 9.39262 56.4031 9.39262C50.2648 9.39262 45.2705 14.3869 45.2705 20.5252C45.2705 23.2154 47.3609 27.5161 49.6845 31.4684L39.8428 29.3002V4.59386C39.8428 2.06058 37.7821 0 35.249 0H7.52422C4.99094 0 2.93035 2.06072 2.93035 4.59386V58.6426H0.678708C0.303574 58.6426 0 58.9462 0 59.3213C0 59.6964 0.303574 60 0.678708 60H67.517C67.8921 60 68.1957 59.6964 68.1957 59.3213C68.1957 58.9462 67.8921 58.6426 67.517 58.6426H65.2654V36.2909L68.4808 36.9993C68.8533 37.0798 69.2101 36.8433 69.2895 36.4823C69.3703 36.1163 69.139 35.7545 68.7723 35.6737ZM56.403 10.75C61.7949 10.75 66.1813 15.1352 66.1813 20.5252C66.1813 25.2735 58.2641 31.3668 56.403 32.7329C54.5418 31.3668 46.6278 25.2776 46.6278 20.5252C46.6279 15.1352 51.0131 10.75 56.403 10.75ZM56.0153 34.1266C56.132 34.2075 56.2678 34.2479 56.403 34.2479C56.5381 34.2479 56.6741 34.2075 56.79 34.1266C57.034 33.9572 60.3223 31.6483 63.1983 28.5916C60.808 32.9815 57.6547 37.4958 56.4028 39.2422C55.1508 37.4954 51.9983 32.9811 49.6089 28.591C52.4843 31.6479 55.7716 33.9569 56.0153 34.1266ZM45.1797 48.9556H51.1954V58.6412H45.1797V48.9556ZM58.5705 58.6413H52.5528V48.9558H58.5705V58.6413ZM4.28777 4.59386C4.28777 2.8089 5.73995 1.35742 7.52422 1.35742H35.2488C37.0338 1.35742 38.4853 2.80904 38.4853 4.59386V58.6426H4.28777V4.59386ZM63.908 58.6413H59.9279V48.9558H61.1507C61.5258 48.9558 61.8294 48.6522 61.8294 48.277C61.8294 47.9019 61.5258 47.5983 61.1507 47.5983C57.0125 47.5983 47.2762 47.5983 42.6 47.5983C42.2249 47.5983 41.9213 47.9019 41.9213 48.277C41.9213 48.6522 42.2249 48.9558 42.6 48.9558H43.8223V58.6413H39.8428V30.69L50.6495 33.0708C53.1606 37.1468 55.6485 40.5201 55.8576 40.8024C55.9862 40.9748 56.1883 41.0768 56.4031 41.0768C56.6178 41.0768 56.82 40.9748 56.9479 40.8024C57.1177 40.5737 58.7857 38.3128 60.7485 35.2958L63.908 35.9918V58.6413Z" fill="#064685"/>
<path d="M34.0983 7.81187H8.6709C8.29576 7.81187 7.99219 8.11544 7.99219 8.49058V15.8676C7.99219 16.2428 8.29576 16.5463 8.6709 16.5463H34.0981C34.4733 16.5463 34.7769 16.2428 34.7769 15.8676V8.49058C34.777 8.11544 34.4734 7.81187 34.0983 7.81187ZM33.4196 15.1889H9.3496V9.16928H33.4194V15.1889H33.4196Z" fill="#064685"/>
<path d="M34.0983 19.6926H8.6709C8.29576 19.6926 7.99219 19.9962 7.99219 20.3713V27.7484C7.99219 28.1235 8.29576 28.4271 8.6709 28.4271H34.0981C34.4733 28.4271 34.7769 28.1235 34.7769 27.7484V20.3713C34.777 19.9962 34.4734 19.6926 34.0983 19.6926ZM33.4196 27.0697H9.3496V21.05H33.4194V27.0697H33.4196Z" fill="#064685"/>
<path d="M34.0983 31.5728H8.6709C8.29576 31.5728 7.99219 31.8764 7.99219 32.2515V39.6286C7.99219 40.0037 8.29576 40.3073 8.6709 40.3073H34.0981C34.4733 40.3073 34.7769 40.0037 34.7769 39.6286V32.2515C34.777 31.8764 34.4734 31.5728 34.0983 31.5728ZM33.4196 38.9498H9.3496V32.9302H33.4194V38.9498H33.4196Z" fill="#064685"/>
<path d="M34.0983 43.4537H8.6709C8.29576 43.4537 7.99219 43.7573 7.99219 44.1324V51.5088C7.99219 51.8839 8.29576 52.1875 8.6709 52.1875H34.0981C34.4733 52.1875 34.7769 51.8839 34.7769 51.5088V44.1324C34.777 43.7573 34.4734 43.4537 34.0983 43.4537ZM33.4196 50.8301H9.3496V44.8111H33.4194V50.8301H33.4196Z" fill="#064685"/>
<path d="M56.404 26.4865C59.6902 26.4865 62.3639 23.8127 62.3639 20.5258C62.3639 17.2403 59.6902 14.5671 56.404 14.5671C53.1185 14.5671 50.4453 17.2402 50.4453 20.5258C50.4453 23.8127 53.1185 26.4865 56.404 26.4865ZM56.404 15.9247C58.9419 15.9247 61.0065 17.9886 61.0065 20.526C61.0065 23.0639 58.9419 25.1292 56.404 25.1292C53.8668 25.1292 51.8027 23.0639 51.8027 20.526C51.8027 17.9886 53.8668 15.9247 56.404 15.9247Z" fill="#064685"/>
</svg>
