<svg width="181" height="180" viewBox="0 0 181 180" fill="none" xmlns="http://www.w3.org/2000/svg">
<path d="M108.499 180C107.221 180 106.045 179.184 105.637 177.9C105.463 177.51 104.419 176.628 103.699 176.202C94.7594 170.964 84.6554 147.804 83.5334 145.182L74.0474 108.57C73.7114 107.274 74.2754 105.912 75.4274 105.234C81.2774 101.796 85.7834 102.102 88.5554 102.966C92.4374 104.184 95.6294 107.268 97.7654 111.888L102.499 121.776V66C102.499 59.382 107.881 54 114.499 54C121.117 54 126.499 59.382 126.499 66V97.614C128.263 96.588 130.315 96 132.499 96C136.861 96 140.677 98.334 142.783 101.82C144.871 100.062 147.565 99 150.499 99C155.725 99 160.183 102.36 161.827 107.028C163.735 105.75 166.033 105 168.499 105C175.117 105 180.499 110.382 180.499 117V165C180.499 173.268 173.773 180 165.499 180H135.499C133.843 180 132.499 178.656 132.499 177C132.499 175.344 133.843 174 135.499 174H165.499C170.461 174 174.499 169.962 174.499 165V117C174.499 113.694 171.811 111 168.499 111C165.187 111 162.499 113.694 162.499 117C162.499 118.656 161.155 120 159.499 120C157.843 120 156.499 118.656 156.499 117V111C156.499 107.694 153.811 105 150.499 105C147.187 105 144.499 107.694 144.499 111C144.499 112.656 143.155 114 141.499 114C139.843 114 138.499 112.656 138.499 111V108C138.499 104.694 135.811 102 132.499 102C129.187 102 126.499 104.694 126.499 108C126.499 109.656 125.155 111 123.499 111C121.843 111 120.499 109.656 120.499 108V66C120.499 62.694 117.811 60 114.499 60C111.187 60 108.499 62.694 108.499 66V135C108.499 136.398 107.527 137.616 106.159 137.928C104.779 138.252 103.399 137.556 102.787 136.296L92.3354 114.438C91.3394 112.284 89.5754 109.566 86.7614 108.69C84.9254 108.12 82.8134 108.348 80.4494 109.386L89.1914 143.256C91.8794 149.454 100.585 167.436 106.735 171.036C107.611 171.552 110.509 173.43 111.355 176.106C111.853 177.684 110.977 179.37 109.399 179.868C109.105 179.958 108.799 180 108.499 180Z" fill="#064685"/>
<path d="M111.5 44.9999C110.732 44.9999 109.964 44.7059 109.376 44.1239L94.3755 29.1239C93.2055 27.9539 93.2055 26.0519 94.3755 24.8819C95.5455 23.7119 97.4476 23.7119 98.6176 24.8819L111.5 37.7579L145.376 3.88189C146.546 2.71189 148.448 2.71189 149.618 3.88189C150.788 5.05189 150.788 6.9539 149.618 8.1239L113.618 44.1239C113.036 44.7059 112.268 44.9999 111.5 44.9999Z" fill="#064685"/>
<path d="M57.5 66H9.5C4.538 66 0.5 61.962 0.5 57V9C0.5 4.038 4.538 0 9.5 0H57.5C62.462 0 66.5 4.038 66.5 9V57C66.5 61.962 62.462 66 57.5 66ZM9.5 6C7.85 6 6.5 7.344 6.5 9V57C6.5 58.656 7.85 60 9.5 60H57.5C59.15 60 60.5 58.656 60.5 57V9C60.5 7.344 59.15 6 57.5 6H9.5Z" fill="#064685"/>
<path d="M57.5 144H9.5C4.538 144 0.5 139.962 0.5 135V87C0.5 82.038 4.538 78 9.5 78H57.5C62.462 78 66.5 82.038 66.5 87V135C66.5 139.962 62.462 144 57.5 144ZM9.5 84C7.85 84 6.5 85.344 6.5 87V135C6.5 136.656 7.85 138 9.5 138H57.5C59.15 138 60.5 136.656 60.5 135V87C60.5 85.344 59.15 84 57.5 84H9.5Z" fill="#064685"/>
<path d="M93.5 66H87.5C82.538 66 78.5 61.962 78.5 57V9C78.5 4.038 82.538 0 87.5 0H135.5C137.156 0 138.5 1.344 138.5 3C138.5 4.656 137.156 6 135.5 6H87.5C85.85 6 84.5 7.344 84.5 9V57C84.5 58.656 85.85 60 87.5 60H93.5C95.156 60 96.5 61.344 96.5 63C96.5 64.656 95.156 66 93.5 66Z" fill="#064685"/>
<path d="M135.5 66H123.5C121.844 66 120.5 64.656 120.5 63C120.5 61.344 121.844 60 123.5 60H135.5C137.15 60 138.5 58.656 138.5 57V27C138.5 25.344 139.844 24 141.5 24C143.156 24 144.5 25.344 144.5 27V57C144.5 61.962 140.462 66 135.5 66Z" fill="#064685"/>
</svg>
