<svg width="60" height="60" viewBox="0 0 60 60" fill="none" xmlns="http://www.w3.org/2000/svg">
<path d="M48.2452 16.4881C47.9711 16.3299 47.6229 16.423 47.4653 16.6953C47.3071 16.968 47.4001 17.317 47.6725 17.4752C49.1666 18.3418 50.4501 19.5676 51.3849 21.0207C51.4941 21.19 51.6774 21.2825 51.8651 21.2825C51.9709 21.2825 52.0779 21.2532 52.1732 21.1917C52.4384 21.0212 52.5147 20.6683 52.3442 20.4034C51.312 18.7993 49.8947 17.4452 48.2452 16.4881Z" fill="#064685"/>
<path d="M29.3132 22.9359C29.0496 22.7629 28.6966 22.8374 28.5232 23.1006C27.6218 24.4774 26.4153 25.6765 25.0332 26.5687C24.7686 26.7397 24.6923 27.0927 24.8632 27.3575C24.9725 27.5266 25.1557 27.6185 25.3429 27.6185C25.4487 27.6185 25.5563 27.589 25.6516 27.5274C27.1668 26.5491 28.4898 25.2348 29.4782 23.7256C29.6502 23.4617 29.5766 23.1083 29.3132 22.9359Z" fill="#064685"/>
<path d="M22.4415 42.7666C25.1322 42.7666 27.3209 40.5775 27.3209 37.8871C27.3209 35.1968 25.1321 33.0077 22.4415 33.0077C19.7508 33.0077 17.562 35.1968 17.562 37.8871C17.562 40.5775 19.7507 42.7666 22.4415 42.7666ZM22.4415 34.1485C24.5027 34.1485 26.1801 35.8256 26.1801 37.8871C26.1801 39.9486 24.5027 41.6258 22.4415 41.6258C20.3803 41.6258 18.7028 39.9487 18.7028 37.8871C18.7028 35.8257 20.3803 34.1485 22.4415 34.1485Z" fill="#064685"/>
<path d="M23.5122 43.3357C22.812 43.5443 22.0721 43.5449 21.3719 43.3363C19.9976 42.9268 18.4724 43.561 17.7476 44.8454C16.6946 46.7125 15.2925 50.3109 16.717 51.9552C18.6831 54.2189 26.2091 54.2105 28.1662 51.9552C28.1668 51.955 28.1668 51.955 28.1668 51.9546C29.5912 50.3101 28.1891 46.7122 27.1357 44.8454C26.4108 43.5608 24.8894 42.9254 23.5122 43.3357ZM27.3043 51.2076C25.7981 52.941 19.0854 52.9428 17.5788 51.2076C16.8624 50.3807 17.3733 47.8323 18.7414 45.4059C19.2019 44.5897 20.1663 44.1687 21.0466 44.4299C21.9596 44.7018 22.9246 44.7012 23.8387 44.4293C24.7056 44.1716 25.6766 44.5808 26.1417 45.4058C27.5104 47.8317 28.0214 50.3801 27.3043 51.2076Z" fill="#064685"/>
<path d="M42.2396 12.024C39.3022 12.024 36.5686 12.8906 34.2616 14.3685C33.1436 6.76377 26.5776 0.90686 18.6672 0.90686C9.97449 0.90686 2.90234 7.97878 2.90234 16.6715C2.90234 19.9908 3.91684 23.1546 5.8393 25.8394L4.46668 30.7334C4.41043 30.9339 4.46785 31.1493 4.61656 31.295C4.76527 31.4404 4.98031 31.4928 5.18141 31.4334L10.1383 29.9337C10.8757 30.408 11.6492 30.8092 12.4457 31.1515C8.92672 34.0448 6.67707 38.4281 6.67707 43.3288C6.67707 46.648 7.69156 49.8117 9.61344 52.4968L8.24129 57.391C8.18504 57.5915 8.24246 57.8069 8.39117 57.9526C8.53988 58.0976 8.75492 58.1504 8.95602 58.091L13.9123 56.591C16.4593 58.2288 19.4023 59.0931 22.4412 59.0931C31.8812 59.0931 39.4002 50.7438 38.0377 41.1276C39.3713 41.5218 40.7797 41.7398 42.2395 41.7398C45.0984 41.7398 47.8672 40.9281 50.2648 39.3897L54.9104 40.7955C55.1109 40.8562 55.3259 40.8028 55.4752 40.6571C55.6239 40.5114 55.6814 40.2962 55.6251 40.0955L54.3393 35.509C56.1448 32.981 57.0975 30.0045 57.0975 26.8818C57.0976 18.6892 50.4321 12.024 42.2396 12.024ZM10.5444 28.8362C10.4497 28.7726 10.3394 28.7401 10.228 28.7401C10.1728 28.7401 10.1171 28.7481 10.0625 28.7646L5.84598 30.0403L7.01246 25.8808C7.06039 25.7109 7.02641 25.5284 6.92105 25.3866C5.03809 22.8519 4.04316 19.8384 4.04316 16.6714C4.04316 8.60784 10.6033 2.04768 18.6671 2.04768C26.7303 2.04768 33.2906 8.60784 33.2906 16.6714C33.2906 24.7349 26.7304 31.2949 18.6672 31.2949C15.7631 31.2949 12.9543 30.4448 10.5444 28.8362ZM22.4415 57.9522C19.5379 57.9522 16.7292 57.1018 14.3186 55.4933C14.2239 55.43 14.1137 55.3974 14.0022 55.3974C13.947 55.3974 13.8914 55.4055 13.8368 55.4219L9.6207 56.698L10.7867 52.5383C10.8346 52.3683 10.8007 52.1859 10.6953 52.0441C8.81293 49.5091 7.81801 46.4955 7.81801 43.3288C7.81801 38.5441 10.1325 34.2946 13.6957 31.6252C15.2881 32.154 16.961 32.4359 18.6672 32.4359C22.0045 32.4359 25.1006 31.3906 27.6516 29.6144C28.6011 34.6907 32.1273 38.8671 36.8271 40.7135C38.4605 49.6715 31.5535 57.9522 22.4415 57.9522ZM53.1663 35.5508L54.2459 39.4025L50.3408 38.2206C50.1759 38.1713 50.0009 38.1972 49.8583 38.2922C47.5977 39.8012 44.9633 40.5989 42.2396 40.5989C35.3424 40.5989 29.6336 35.4768 28.6787 28.8398C32.1895 25.9461 34.4315 21.5658 34.4315 16.6715C34.4315 16.3301 34.4168 15.9923 34.3953 15.6562C36.6208 14.0944 39.3201 13.165 42.2396 13.165C49.8031 13.165 55.9566 19.3183 55.9566 26.8818C55.9566 29.8519 55.0235 32.6789 53.2576 35.0567C53.1523 35.1984 53.1184 35.3808 53.1663 35.5508Z" fill="#064685"/>
<path d="M48.985 23.1273H45.1628L45.8988 21.0357C46.3539 19.7431 45.3932 18.3856 44.0225 18.3856C43.4498 18.3856 42.939 18.7546 42.7512 19.3037C42.3088 20.5979 41.6985 21.8094 40.9371 22.923C40.7095 22.6396 40.3645 22.4543 39.9735 22.4543H37.8749C37.1908 22.4543 36.6343 23.0108 36.6343 23.6949V32.5746C36.6343 33.2587 37.1908 33.8152 37.8749 33.8152H39.9735C40.4649 33.8152 40.8867 33.5258 41.0874 33.1105H47.1827C47.9464 33.1105 48.6478 32.6626 48.9698 31.9693C49.0051 31.8932 48.889 32.2643 50.7524 25.8216C51.3046 24.5514 50.3737 23.1273 48.985 23.1273ZM40.0734 32.54V32.5746C40.0734 32.6294 40.0288 32.6743 39.9737 32.6743H37.8751C37.8199 32.6743 37.7753 32.6294 37.7753 32.5746V23.6949C37.7753 23.6401 37.8199 23.5952 37.8751 23.5952H39.9737C40.0288 23.5952 40.0734 23.6401 40.0734 23.6949V32.54ZM49.6981 25.3851C49.6624 25.4622 49.7787 25.0906 47.9183 31.523C47.7762 31.7955 47.4916 31.9695 47.1829 31.9695H41.2143V24.4748C42.3524 23.0387 43.2321 21.4239 43.8309 19.673C43.8615 19.5839 43.9367 19.5266 44.0225 19.5266C44.6088 19.5266 45.0175 20.1051 44.8224 20.6566L43.819 23.5084C43.7578 23.683 43.7845 23.8766 43.8915 24.0276C43.9985 24.1785 44.1722 24.2683 44.3572 24.2683H48.9849C49.5628 24.2681 49.9394 24.8652 49.6981 25.3851Z" fill="#064685"/>
<path d="M20.0004 23.9768L24.9885 18.9695C25.0108 18.9475 25.0304 18.9241 25.0482 18.8995C26.813 17.0544 26.7847 14.1114 24.9669 12.2955C23.255 10.5948 20.5497 10.4787 18.7019 11.9448C16.8485 10.4802 14.1366 10.605 12.428 12.3161C10.6242 14.1313 10.6008 17.0573 12.3522 18.898C12.3751 18.934 12.4018 18.9676 12.4325 18.9983L17.4474 23.9828C18.1526 24.6848 19.2981 24.6824 20.0004 23.9768ZM13.3216 18.2732C13.2999 18.24 13.2748 18.2091 13.2463 18.1807C11.8503 16.7903 11.8464 14.5201 13.2363 13.1213C14.6279 11.726 16.9013 11.721 18.3008 13.1118C18.5236 13.3332 18.8834 13.3327 19.1063 13.1106C20.4979 11.7206 22.7663 11.7179 24.1613 13.1039C25.5557 14.4966 25.5618 16.7651 24.1758 18.1605C24.1558 18.1806 24.1374 18.2018 24.1212 18.2241L19.1922 23.1718C18.9331 23.4318 18.5125 23.4326 18.2519 23.1738L13.3216 18.2732Z" fill="#064685"/>
</svg>
