<svg width="60" height="100" viewBox="0 0 60 100" fill="none" xmlns="http://www.w3.org/2000/svg">
<path d="M14.9086 62.6233C11.5874 63.3273 9.08711 66.2801 9.08711 69.8081C9.08711 73.3106 11.5531 76.2438 14.8393 76.9744C13.6016 78.2898 12.837 80.0552 12.837 81.9997C12.837 85.5834 15.4183 88.5712 18.8186 89.2132C19.0397 95.1966 23.9633 100 29.9997 100C36.0361 100 40.9598 95.1966 41.1808 89.2132C44.5811 88.5712 47.1624 85.5834 47.1624 81.9997C47.1624 80.0552 46.3978 78.2898 45.1601 76.9744C48.4463 76.2438 50.9123 73.3106 50.9123 69.8081C50.9123 66.2801 48.4122 63.3275 45.0911 62.6234C45.5831 57.7886 47.6266 55.0728 51.9584 50.4174C57.1378 44.8517 59.9899 37.5978 59.9899 29.9916C59.9899 21.7489 56.5439 13.7821 50.5351 8.13459C44.4415 2.40834 36.4711 -0.460891 28.0881 0.0603436C12.9414 1.00088 0.618066 13.6277 0.0327528 28.8064C-0.27913 36.9001 2.59129 44.6033 8.11545 50.4974C12.3052 54.9674 14.4118 57.7599 14.9086 62.6233ZM29.9997 97.5C25.386 97.5 21.6101 93.8885 21.3253 89.3452H38.6741C38.3893 93.8885 34.6134 97.5 29.9997 97.5ZM39.8164 86.8452H20.183C17.511 86.8452 15.337 84.6718 15.337 81.9997C15.337 79.3276 17.511 77.1536 20.183 77.1536H39.8164C42.4884 77.1536 44.6625 79.3276 44.6625 81.9997C44.6625 84.6718 42.4884 86.8452 39.8164 86.8452ZM48.4124 69.8081C48.4124 72.4802 46.2384 74.6536 43.5663 74.6536H39.8164H20.183H16.4331C13.7611 74.6536 11.5871 72.4802 11.5871 69.8081C11.5871 67.136 13.7611 64.9619 16.4331 64.9619H43.5663C46.2384 64.9619 48.4124 67.136 48.4124 69.8081ZM23.6205 39.159H18.5449C15.7465 39.159 13.4693 36.8818 13.4693 34.0834C13.4693 31.285 15.7465 29.0078 18.5449 29.0078C21.3433 29.0078 23.6205 31.285 23.6205 34.0834V39.159ZM26.1204 62.462V41.659H33.879V62.462H26.1204ZM28.2432 2.55543C35.9218 2.07997 43.2373 4.70629 48.8225 9.95647C54.412 15.2097 57.4899 22.3251 57.4899 29.9916C57.4899 36.9636 54.8759 43.6127 50.1286 48.7146C45.8562 53.3057 43.1832 56.6281 42.6016 62.462H36.379V41.659H41.4545C45.6317 41.659 49.03 38.2606 49.03 34.0834C49.03 29.9062 45.6317 26.5078 41.4545 26.5078C37.2774 26.5078 33.879 29.9062 33.879 34.0834V39.159H26.1204V34.0834C26.1204 29.9062 22.722 26.5078 18.5449 26.5078C14.3678 26.5078 10.9694 29.9062 10.9694 34.0834C10.9694 38.2606 14.3678 41.659 18.5449 41.659H23.6205V62.462H17.4222C16.8504 56.5697 14.1795 53.3113 9.93914 48.7872C4.87578 43.385 2.24462 36.3234 2.53025 28.9028C3.06735 14.9906 14.3616 3.41785 28.2432 2.55543ZM36.379 39.159V34.0834C36.379 31.285 38.6561 29.0078 41.4545 29.0078C44.2529 29.0078 46.5301 31.285 46.5301 34.0834C46.5301 36.8818 44.2529 39.159 41.4545 39.159H36.379Z" fill="#064685"/>
</svg>
