<svg width="30" height="30" viewBox="0 0 30 30" fill="none" xmlns="http://www.w3.org/2000/svg">
<path d="M5.52516 26.2078C0.0453749 22.1254 -1.53862 14.3904 1.58657 8.28835C4.75457 2.05737 11.8612 -1.29447 18.0687 0.467393C26.1172 2.74492 28.7714 12.4567 22.992 18.3868C22.6495 18.7306 22.2642 18.9455 21.8789 19.2463C22.1358 17.5704 22.6923 15.9804 22.6067 14.3904C22.2642 9.4486 17.4694 6.26865 12.5461 7.51484C5.05424 9.4486 1.24408 18.043 4.84019 24.9186C5.05424 25.3483 5.3111 25.7781 5.52516 26.2078Z" fill="white"/>
<path d="M7.92157 11.5543C7.70752 12.5857 7.49346 13.2732 7.45065 13.9608C6.8513 19.1174 11.0896 23.3287 16.2697 22.6841C24.4465 21.6528 29.1557 13.7889 26.2018 6.05387C26.0734 5.75306 25.9877 5.40928 25.7737 4.89362C29.6266 8.07356 31.0394 14.5624 29.1985 19.9339C26.4586 27.9268 17.3828 32.224 10.4902 28.8292C4.32547 25.8211 2.57022 17.9572 6.76568 12.6286C7.02255 12.2848 7.36503 12.07 7.92157 11.5543Z" fill="white"/>
</svg>
