<svg width="100" height="100" viewBox="0 0 100 100" fill="none" xmlns="http://www.w3.org/2000/svg">
<path d="M42.8572 67.6189L27.6191 52.3808L30.9525 49.0474L42.8572 60.9522L69.0477 34.7617L72.3811 38.0951L42.8572 67.6189Z" fill="white"/>
<path d="M50 100C43.3333 100 37.381 95.9524 34.7619 90C34.5238 89.2857 33.3333 88.8095 32.619 89.0476C26.4286 91.4286 19.2857 90 14.7619 85.2381C10 80.4762 8.57143 73.5714 10.9524 67.381C11.1905 66.6667 10.7143 65.4762 10 65.2381C4.04762 62.619 0 56.6667 0 50C0 43.3333 4.04762 37.381 10 34.7619C10.7143 34.5238 11.1905 33.3333 10.9524 32.619C8.57143 26.4286 10 19.2857 14.7619 14.7619C19.5238 10 26.4286 8.57143 32.619 10.9524C33.3333 11.1905 34.5238 10.7143 34.7619 10C37.381 4.04762 43.3333 0 50 0C56.6667 0 62.619 4.04762 65.2381 10C65.4762 10.7143 66.6667 11.1905 67.381 10.9524C73.5714 8.57143 80.7143 10 85.2381 14.7619C90 19.5238 91.4286 26.4286 89.0476 32.619C88.8095 33.3333 89.2857 34.5238 90 34.7619C96.1905 37.381 100 43.3333 100 50C100 56.6667 95.9524 62.619 90 65.2381C89.2857 65.4762 88.8095 66.6667 89.0476 67.381C91.4286 73.5714 90 80.7143 85.2381 85.2381C80.4762 90 73.5714 91.4286 67.381 89.0476C66.6667 88.8095 65.4762 89.2857 65.2381 90C62.619 95.9524 56.6667 100 50 100ZM33.0952 84.2857C35.7143 84.2857 38.0952 85.7143 39.0476 88.0952C40.9524 92.381 45.2381 95.2381 50 95.2381C54.7619 95.2381 59.0476 92.381 60.9524 88.0952C62.1429 85 66.1905 83.5714 69.0476 84.7619C73.5714 86.4286 78.5714 85.4762 81.9048 82.1429C85.2381 78.8095 86.1905 73.8095 84.5238 69.2857C83.3333 66.1905 85 62.381 87.8571 61.1905C92.1429 59.2857 95 55 95 50.2381C95 45.4762 92.1429 41.1905 87.8571 39.2857C84.7619 38.0952 83.3333 34.0476 84.5238 30.9524C86.1905 26.4286 85.2381 21.4286 81.9048 18.0952C78.5714 14.7619 73.5714 13.5714 69.0476 15.4762C66.1905 16.6667 62.1429 15 60.9524 11.9048C59.0476 7.61905 54.7619 4.7619 50 4.7619C45.2381 4.7619 40.9524 7.61905 39.0476 11.9048C37.8571 15 33.8095 16.6667 30.9524 15.4762C26.4286 13.8095 21.4286 14.7619 18.0952 18.0952C14.5238 21.4286 13.5714 26.4286 15.4762 30.9524C16.6667 34.0476 15 37.8571 12.1429 39.0476C7.61905 40.9524 4.7619 45.2381 4.7619 50C4.7619 54.7619 7.61905 59.0476 11.9048 60.9524C15 62.1429 16.4286 66.1905 15.2381 69.0476C13.5714 73.5714 14.5238 78.5714 17.8571 81.9048C21.1905 85.2381 26.1905 86.1905 30.7143 84.5238C31.4286 84.2857 32.1429 84.2857 33.0952 84.2857Z" fill="white"/>
</svg>
