<svg width="100" height="100" viewBox="0 0 100 100" fill="none" xmlns="http://www.w3.org/2000/svg">
<path d="M89.8082 21.5124L84.0596 18.1939C83.1212 17.6505 82.3378 16.8688 81.7961 15.9288L78.4776 10.1801C76.7808 7.24331 73.6223 5.41988 70.2321 5.41988H63.5951C62.5117 5.41988 61.44 5.13319 60.5016 4.58983L54.7546 1.27132C51.8178 -0.423773 48.1693 -0.423773 45.2325 1.27132L39.4855 4.58983C38.5471 5.13319 37.4754 5.41988 36.392 5.41988H29.7549C26.3648 5.41988 23.2046 7.24331 21.5095 10.1801L18.191 15.9288C17.6493 16.8688 16.8659 17.6522 15.9275 18.1939L10.1789 21.5141C7.24206 23.2108 5.41863 26.3693 5.41863 29.7595V36.3982C5.41863 37.4816 5.13195 38.5517 4.59025 39.4917L1.27007 45.242C-0.423356 48.1772 -0.423356 51.8257 1.27007 54.7609L4.59025 60.5095C5.13195 61.4496 5.41863 62.5196 5.41863 63.603V70.2417C5.41863 73.6319 7.24373 76.7904 10.1789 78.4872L15.9275 81.8057C16.8659 82.349 17.6493 83.1308 18.191 84.0708L21.5095 89.8195C23.2063 92.7563 26.3648 94.5797 29.7549 94.5797H36.392C37.4754 94.5797 38.5471 94.8664 39.4855 95.4098L45.2325 98.7283C46.7009 99.575 48.3476 100 49.9927 100C51.6378 100 53.2862 99.5766 54.753 98.7283L60.4999 95.4098C61.4383 94.8664 62.5101 94.5797 63.5934 94.5797H70.2305C73.6207 94.5797 76.7808 92.7563 78.4759 89.8195L81.7944 84.0708C82.3361 83.1308 83.1195 82.3474 84.0579 81.8057L89.8065 78.4855C92.7434 76.7887 94.5668 73.6302 94.5668 70.2401V63.6014C94.5668 62.518 94.8535 61.4479 95.3952 60.5079L98.7154 54.7575C100.409 51.8224 100.409 48.1739 98.7154 45.2387L95.3952 39.4901C94.8535 38.55 94.5668 37.4799 94.5668 36.3966V29.7579C94.5668 26.3677 92.7434 23.2092 89.8082 21.5124ZM95.8302 46.9038C96.9303 48.8122 96.9303 51.184 95.8302 53.0908L92.51 58.8411C91.6766 60.2862 91.2349 61.9313 91.2349 63.5997V70.2384C91.2349 72.4418 90.0499 74.4936 88.1414 75.5953L82.3928 78.9155C80.9494 79.7489 79.7443 80.954 78.9076 82.399L75.5891 88.1477C74.4874 90.0561 72.4339 91.2412 70.2305 91.2412H63.5934C61.925 91.2412 60.2799 91.6829 58.8332 92.5163L53.0862 95.8348C51.1778 96.9365 48.806 96.9365 46.8975 95.8348L41.1506 92.5163C39.7038 91.6829 38.0587 91.2412 36.3903 91.2412H29.7533C27.5498 91.2412 25.4964 90.0561 24.3947 88.1477L21.0761 82.3974C20.2394 80.9523 19.0344 79.7489 17.591 78.9139L11.8423 75.5937C9.93221 74.492 8.74881 72.4385 8.74881 70.2367V63.598C8.74881 61.9296 8.30712 60.2845 7.47374 58.8378L4.15356 53.0891C3.0535 51.1807 3.0535 48.8089 4.15356 46.9021L7.47374 41.1518C8.30712 39.7067 8.74881 38.0616 8.74881 36.3932V29.7545C8.74881 27.5511 9.93387 25.4993 11.8423 24.3976L17.591 21.0774C19.0344 20.244 20.2394 19.0389 21.0761 17.5939L24.3947 11.8452C25.4964 9.93679 27.5498 8.75172 29.7533 8.75172H36.3903C38.0587 8.75172 39.7038 8.31003 41.1506 7.47665L46.8975 4.15814C48.806 3.05642 51.1778 3.05642 53.0862 4.15814L58.8332 7.47665C60.2799 8.31003 61.925 8.75172 63.5934 8.75172H70.2305C72.4339 8.75172 74.4874 9.93679 75.5891 11.8452L78.9076 17.5955C79.7443 19.0406 80.9494 20.244 82.3928 21.0791L88.1414 24.3992C90.0515 25.501 91.2349 27.5544 91.2349 29.7562V36.3949C91.2349 38.0633 91.6766 39.7084 92.51 41.1551L95.8302 46.9038Z" fill="white"/>
<path d="M34.25 47.75V56.75H25.25V59H28.625V62.375C28.625 62.6734 28.7435 62.9595 28.9545 63.1705C29.1655 63.3815 29.4516 63.5 29.75 63.5H32.5625C32.9895 65.1272 33.6408 66.6872 34.4975 68.135L32.495 70.1375C32.3907 70.2426 32.3082 70.3673 32.2523 70.5044C32.1963 70.6414 32.1679 70.7882 32.1687 70.9363C32.1729 71.2341 32.2894 71.5194 32.495 71.735L37.265 76.505C37.3696 76.6104 37.494 76.6941 37.6311 76.7513C37.7682 76.8084 37.9152 76.8378 38.0637 76.8378C38.2123 76.8378 38.3593 76.8084 38.4964 76.7513C38.6335 76.6941 38.7579 76.6104 38.8625 76.505L40.865 74.5025C42.3128 75.3592 43.8728 76.0105 45.5 76.4375V79.25C45.5 79.5484 45.6185 79.8345 45.8295 80.0455C46.0405 80.2565 46.3266 80.375 46.625 80.375H53.375C53.6734 80.375 53.9595 80.2565 54.1705 80.0455C54.3815 79.8345 54.5 79.5484 54.5 79.25V76.4375C56.1272 76.0105 57.6872 75.3592 59.135 74.5025L61.1375 76.505C61.2421 76.6104 61.3665 76.6941 61.5036 76.7513C61.6407 76.8084 61.7877 76.8378 61.9362 76.8378C62.0848 76.8378 62.2318 76.8084 62.3689 76.7513C62.506 76.6941 62.6304 76.6104 62.735 76.505L67.505 71.735C67.7106 71.5194 67.8271 71.2341 67.8312 70.9363C67.8321 70.7882 67.8037 70.6414 67.7477 70.5044C67.6918 70.3673 67.6093 70.2426 67.505 70.1375L65.5025 68.135C66.3592 66.6872 67.0105 65.1272 67.4375 63.5H70.25C70.5484 63.5 70.8345 63.3815 71.0455 63.1705C71.2565 62.9595 71.375 62.6734 71.375 62.375V59H74.75V56.75H65.75V47.75C65.75 46.2582 65.1574 44.8274 64.1025 43.7725C63.0476 42.7176 61.6168 42.125 60.125 42.125H39.875C38.3832 42.125 36.9524 42.7176 35.8975 43.7725C34.8426 44.8274 34.25 46.2582 34.25 47.75ZM69.125 59V61.25H66.5375C66.2743 61.2447 66.0176 61.3318 65.812 61.4963C65.6065 61.6607 65.4651 61.8921 65.4125 62.15C65.0225 64.1217 64.2588 66.0005 63.1625 67.685C63.0093 67.9001 62.9366 68.1622 62.9571 68.4254C62.9777 68.6887 63.0902 68.9363 63.275 69.125L65.12 70.9588L61.9362 74.1425L60.125 72.275C59.9419 72.0907 59.7007 71.9755 59.4424 71.9488C59.184 71.9222 58.9243 71.9857 58.7075 72.1287C57.023 73.225 55.1442 73.9888 53.1725 74.3787C52.9146 74.4313 52.6832 74.5727 52.5188 74.7783C52.3543 74.9838 52.2672 75.2406 52.2725 75.5037V78.125H47.75V75.5375C47.7553 75.2743 47.6682 75.0176 47.5037 74.812C47.3393 74.6065 47.1079 74.4651 46.85 74.4125C44.8783 74.0225 42.9995 73.2588 41.315 72.1625C41.0999 72.0093 40.8378 71.9366 40.5746 71.9571C40.3113 71.9777 40.0637 72.0902 39.875 72.275L38.0413 74.12L34.8575 70.9363L36.725 69.125C36.9093 68.9419 37.0245 68.7007 37.0512 68.4424C37.0778 68.184 37.0143 67.9243 36.8713 67.7075C35.775 66.023 35.0112 64.1442 34.6213 62.1725C34.5687 61.9146 34.4273 61.6832 34.2217 61.5188C34.0162 61.3543 33.7594 61.2672 33.4963 61.2725H30.875V59H37.625C37.625 62.2821 38.9288 65.4297 41.2496 67.7504C43.5703 70.0712 46.7179 71.375 50 71.375C53.2821 71.375 56.4297 70.0712 58.7504 67.7504C61.0712 65.4297 62.375 62.2821 62.375 59H69.125ZM39.875 59H60.125C60.125 61.6853 59.0583 64.2606 57.1595 66.1595C55.2606 68.0583 52.6853 69.125 50 69.125C47.3147 69.125 44.7394 68.0583 42.8405 66.1595C40.9417 64.2606 39.875 61.6853 39.875 59ZM53.2287 44.375L50 48.245L46.7712 44.375H53.2287ZM49.1337 50.72C49.2393 50.8474 49.3717 50.9499 49.5214 51.0203C49.6711 51.0907 49.8346 51.1272 50 51.1272C50.1654 51.1272 50.3289 51.0907 50.4786 51.0203C50.6283 50.9499 50.7607 50.8474 50.8663 50.72L56.1538 44.375H60.125C61.0201 44.375 61.8785 44.7306 62.5115 45.3635C63.1444 45.9964 63.5 46.8549 63.5 47.75V56.75H57.875V51.125H55.625V56.75H44.375V51.125H42.125V56.75H36.5V47.75C36.5 46.8549 36.8556 45.9964 37.4885 45.3635C38.1214 44.7306 38.9799 44.375 39.875 44.375H43.8463L49.1337 50.72Z" fill="white"/>
<path d="M48.875 52.25H51.125V55.625H48.875V52.25Z" fill="white"/>
<path d="M74.3678 22.1561C74.2054 22.0134 74.0053 21.9205 73.7915 21.8886C73.5777 21.8567 73.3592 21.887 73.1621 21.9761C72.9651 22.0651 72.7979 22.209 72.6805 22.3905C72.5632 22.5721 72.5006 22.7837 72.5003 22.9999V25.2498H60.1253C60.1253 24.3547 59.7698 23.4963 59.1368 22.8634C58.5039 22.2304 57.6454 21.8749 56.7503 21.8749H46.8391L41.4166 19.7036C41.2462 19.6356 41.0618 19.6104 40.8795 19.63C40.6971 19.6496 40.5223 19.7135 40.3703 19.8161C40.2177 19.9193 40.0927 20.0584 40.0064 20.2212C39.9201 20.384 39.8751 20.5656 39.8753 20.7499V25.2498H27.5003V22.9999C27.5001 22.7837 27.4375 22.5721 27.3201 22.3905C27.2028 22.209 27.0356 22.0651 26.8385 21.9761C26.6415 21.887 26.423 21.8567 26.2092 21.8886C25.9954 21.9205 25.7953 22.0134 25.6328 22.1561L16.6328 30.0311C16.5131 30.1367 16.4173 30.2665 16.3516 30.412C16.2859 30.5575 16.252 30.7152 16.252 30.8748C16.252 31.0345 16.2859 31.1922 16.3516 31.3377C16.4173 31.4832 16.5131 31.613 16.6328 31.7186L25.6328 39.5936C25.8379 39.7745 26.1019 39.8745 26.3753 39.8749C26.5345 39.8741 26.6917 39.8396 26.8366 39.7736C27.034 39.6849 27.2016 39.5411 27.3193 39.3595C27.437 39.1779 27.4999 38.9663 27.5003 38.7499V36.4998H30.8753V34.2498H26.3753C26.077 34.2498 25.7908 34.3684 25.5798 34.5794C25.3689 34.7903 25.2503 35.0765 25.2503 35.3748V36.2748L19.0853 30.8748L25.2503 25.4748V26.3748C25.2503 26.6732 25.3689 26.9594 25.5798 27.1703C25.7908 27.3813 26.077 27.4998 26.3753 27.4998H39.8753C39.8773 28.1962 40.0946 28.8748 40.4974 29.4428C40.9002 30.0108 41.4688 30.4402 42.1253 30.6723V34.2498C42.1253 36.3384 42.955 38.3415 44.4319 39.8183C45.9087 41.2952 47.9118 42.1249 50.0003 42.1249C52.0889 42.1249 54.092 41.2952 55.5688 39.8183C57.0457 38.3415 57.8753 36.3384 57.8753 34.2498V30.6723C58.5318 30.4402 59.1005 30.0108 59.5033 29.4428C59.9061 28.8748 60.1234 28.1962 60.1253 27.4998H73.6253C73.9237 27.4998 74.2099 27.3813 74.4208 27.1703C74.6318 26.9594 74.7503 26.6732 74.7503 26.3748V25.4748L80.9153 30.8748L74.7503 36.2748V35.3748C74.7503 35.0765 74.6318 34.7903 74.4208 34.5794C74.2099 34.3684 73.9237 34.2498 73.6253 34.2498H69.1253V36.4998H72.5003V38.7499C72.5008 38.9663 72.5636 39.1779 72.6814 39.3595C72.7991 39.5411 72.9667 39.6849 73.1641 39.7736C73.3089 39.8396 73.4662 39.8741 73.6253 39.8749C73.8988 39.8745 74.1627 39.7745 74.3678 39.5936L83.3678 31.7186C83.4875 31.613 83.5834 31.4832 83.6491 31.3377C83.7148 31.1922 83.7487 31.0345 83.7487 30.8748C83.7487 30.7152 83.7148 30.5575 83.6491 30.412C83.5834 30.2665 83.4875 30.1367 83.3678 30.0311L74.3678 22.1561ZM55.6253 34.2498C55.6253 35.7417 55.0327 37.1724 53.9778 38.2273C52.9229 39.2822 51.4922 39.8749 50.0003 39.8749C48.5085 39.8749 47.0778 39.2822 46.0229 38.2273C44.968 37.1724 44.3753 35.7417 44.3753 34.2498V30.8748H55.6253V34.2498ZM57.8753 27.4998C57.8753 27.7982 57.7568 28.0844 57.5458 28.2953C57.3349 28.5063 57.0487 28.6248 56.7503 28.6248H43.2503C42.952 28.6248 42.6658 28.5063 42.4548 28.2953C42.2439 28.0844 42.1253 27.7982 42.1253 27.4998V22.4148L46.2091 24.0461C46.3411 24.1002 46.4827 24.1269 46.6253 24.1248H56.7503C57.0487 24.1248 57.3349 24.2434 57.5458 24.4544C57.7568 24.6653 57.8753 24.9515 57.8753 25.2498V27.4998Z" fill="white"/>
<path d="M33.125 34.25H35.375V36.5H33.125V34.25Z" fill="white"/>
<path d="M37.625 34.25H39.875V36.5H37.625V34.25Z" fill="white"/>
<path d="M64.625 34.25H66.875V36.5H64.625V34.25Z" fill="white"/>
<path d="M60.125 34.25H62.375V36.5H60.125V34.25Z" fill="white"/>
</svg>
