<svg width="100" height="100" viewBox="0 0 100 100" fill="none" xmlns="http://www.w3.org/2000/svg">
<path d="M50.3212 26.945C48.915 26.945 47.5403 27.362 46.3711 28.1433C45.2019 28.9245 44.2906 30.0349 43.7524 31.3341C43.2143 32.6333 43.0735 34.0629 43.3478 35.4421C43.6222 36.8213 44.2993 38.0882 45.2937 39.0825C46.288 40.0769 47.5549 40.754 48.9341 41.0284C50.3133 41.3027 51.7429 41.1619 53.0421 40.6238C54.3413 40.0856 55.4517 39.1743 56.233 38.0051C57.0142 36.8359 57.4312 35.4612 57.4312 34.055C57.4291 32.17 56.6793 30.3628 55.3464 29.0298C54.0134 27.6969 52.2062 26.9471 50.3212 26.945ZM50.3212 39.5243C49.2395 39.5243 48.182 39.2035 47.2826 38.6025C46.3831 38.0015 45.6821 37.1473 45.2681 36.1479C44.8542 35.1485 44.7459 34.0488 44.9569 32.9878C45.168 31.9269 45.6889 30.9523 46.4538 30.1874C47.2187 29.4225 48.1933 28.9016 49.2543 28.6906C50.3152 28.4796 51.4149 28.5879 52.4143 29.0019C53.4137 29.4159 54.2679 30.1169 54.8689 31.0163C55.4698 31.9158 55.7906 32.9733 55.7906 34.055C55.7889 35.5051 55.2122 36.8952 54.1868 37.9206C53.1615 38.9459 51.7713 39.5226 50.3212 39.5243ZM67.76 33.2347H63.3215V32.6049C63.321 32.097 63.1189 31.61 62.7597 31.2508C62.4006 30.8916 61.9136 30.6896 61.4056 30.689H59.7784C59.6644 30.369 59.5342 30.055 59.3882 29.7482L60.5391 28.5972C60.8977 28.2376 61.0991 27.7504 61.0991 27.2425C61.0991 26.7347 60.8977 26.2475 60.5391 25.8879L58.4884 23.8371C58.1286 23.4785 57.6415 23.2772 57.1336 23.2772C56.6257 23.2772 56.1386 23.4785 55.7789 23.8371L54.6278 24.988C54.3211 24.8421 54.0071 24.7119 53.6872 24.5977V22.9707C53.6866 22.4627 53.4846 21.9758 53.1254 21.6166C52.7662 21.2574 52.2792 21.0553 51.7713 21.0547H48.8711C48.3632 21.0553 47.8762 21.2574 47.517 21.6166C47.1579 21.9758 46.9558 22.4627 46.9552 22.9707V24.5977C46.6352 24.7118 46.3212 24.842 46.0144 24.9879L44.8635 23.8371C44.5038 23.4785 44.0166 23.2772 43.5087 23.2772C43.0008 23.2772 42.5137 23.4785 42.1539 23.8371L40.1032 25.8879C39.7446 26.2475 39.5432 26.7347 39.5432 27.2426C39.5432 27.7505 39.7446 28.2377 40.1032 28.5973L41.2539 29.7484C41.108 30.0552 40.9778 30.3692 40.8637 30.6891H39.2368C38.7288 30.6897 38.2419 30.8918 37.8827 31.251C37.5236 31.6101 37.3216 32.0971 37.321 32.605V35.5053C37.3216 36.0132 37.5236 36.5002 37.8828 36.8593C38.2419 37.2185 38.7289 37.4205 39.2368 37.4211H40.8639C40.9781 37.7411 41.1083 38.0551 41.2542 38.362L40.1034 39.5128C39.7449 39.8725 39.5435 40.3596 39.5435 40.8675C39.5435 41.3754 39.7449 41.8626 40.1034 42.2223L42.1542 44.273C42.5138 44.6317 43.0009 44.8332 43.5089 44.8332C44.0168 44.8332 44.5039 44.6317 44.8635 44.273L46.0146 43.1221C46.3214 43.268 46.6354 43.3982 46.9553 43.5123V45.1393C46.9559 45.6472 47.158 46.1342 47.5171 46.4934C47.8763 46.8526 48.3633 47.0546 48.8712 47.0552H51.7714C52.2794 47.0546 52.7664 46.8526 53.1256 46.4934C53.4848 46.1343 53.6868 45.6473 53.6874 45.1393V43.5123C54.0074 43.3982 54.3213 43.2679 54.6281 43.122L55.7791 44.2729C56.1388 44.6314 56.6259 44.8327 57.1338 44.8327C57.6416 44.8327 58.1288 44.6314 58.4885 44.2729L60.5392 42.2221C60.8978 41.8625 61.0992 41.3753 61.0992 40.8675C61.0992 40.3596 60.8978 39.8724 60.5392 39.5128L59.3882 38.3619C59.5342 38.0551 59.6644 37.741 59.7785 37.421H61.4057C61.9137 37.4204 62.4006 37.2184 62.7598 36.8592C63.119 36.5001 63.321 36.0131 63.3216 35.5052V34.8753H67.7601C69.0169 34.8709 70.2623 35.1147 71.4247 35.5926C72.5871 36.0705 73.6437 36.7732 74.534 37.6603C75.4243 38.5475 76.1306 39.6016 76.6126 40.7624C77.0946 41.9231 77.3427 43.1676 77.3427 44.4244C77.3427 45.6812 77.0946 46.9257 76.6126 48.0864C76.1306 49.2472 75.4243 50.3013 74.534 51.1885C73.6437 52.0756 72.5871 52.7783 71.4247 53.2562C70.2623 53.7341 69.0169 53.9779 67.7601 53.9735H60.9964L61.2921 53.7226C61.3754 53.6532 61.4441 53.5681 61.4944 53.472C61.5446 53.376 61.5752 53.2709 61.5846 53.1629C61.594 53.0549 61.5819 52.9462 61.5489 52.8429C61.516 52.7396 61.463 52.6439 61.3928 52.5612C61.3227 52.4786 61.2369 52.4107 61.1403 52.3614C61.0438 52.3121 60.9384 52.2824 60.8304 52.2741C60.7223 52.2658 60.6137 52.279 60.5107 52.3129C60.4077 52.3468 60.3125 52.4008 60.2306 52.4717L58.2314 54.1684C58.1406 54.2454 58.0677 54.3412 58.0177 54.4492C57.9677 54.5572 57.9418 54.6748 57.9418 54.7938C57.9418 54.9128 57.9677 55.0304 58.0177 55.1384C58.0677 55.2464 58.1406 55.3422 58.2314 55.4192L60.2306 57.116C60.3125 57.1869 60.4077 57.2409 60.5107 57.2748C60.6137 57.3087 60.7223 57.3219 60.8304 57.3136C60.9384 57.3052 61.0438 57.2756 61.1403 57.2263C61.2369 57.177 61.3227 57.1091 61.3928 57.0265C61.463 56.9438 61.516 56.8481 61.5489 56.7448C61.5819 56.6415 61.594 56.5328 61.5846 56.4248C61.5752 56.3168 61.5446 56.2117 61.4944 56.1157C61.4441 56.0196 61.3754 55.9344 61.2921 55.8651L60.9964 55.6141H67.76C69.2325 55.6189 70.6915 55.333 72.0532 54.7728C73.415 54.2126 74.6528 53.3891 75.6958 52.3495C76.7387 51.31 77.5661 50.0749 78.1307 48.7149C78.6953 47.3549 78.986 45.8969 78.986 44.4244C78.986 42.9519 78.6953 41.4939 78.1307 40.1339C77.5661 38.7739 76.7387 37.5388 75.6958 36.4992C74.6528 35.4597 73.415 34.6362 72.0532 34.076C70.6915 33.5158 69.2325 33.2299 67.76 33.2347ZM61.6809 35.5052C61.6799 35.5779 61.6506 35.6474 61.5992 35.6988C61.5478 35.7502 61.4783 35.7794 61.4056 35.7804H59.1808C59.0027 35.7803 58.8294 35.8383 58.6872 35.9455C58.5449 36.0526 58.4414 36.2032 58.3923 36.3744C58.2176 36.9821 57.9747 37.5681 57.668 38.1212C57.5816 38.277 57.5483 38.4566 57.5731 38.633C57.5978 38.8094 57.6793 38.973 57.8053 39.099L59.3791 40.6728C59.43 40.7248 59.4584 40.7947 59.4584 40.8675C59.4584 40.9402 59.43 41.0101 59.3791 41.0621L57.3283 43.1129C57.2762 43.1637 57.2064 43.1921 57.1337 43.1921C57.0609 43.1921 56.9911 43.1637 56.939 43.1129L55.3651 41.5391C55.2391 41.4131 55.0755 41.3315 54.8991 41.3067C54.7227 41.282 54.5429 41.3153 54.3871 41.4017C53.8344 41.7085 53.2486 41.9515 52.641 42.1262C52.4699 42.1753 52.3194 42.2788 52.2122 42.4211C52.1051 42.5633 52.0471 42.7365 52.0471 42.9146V45.1393C52.0462 45.212 52.0169 45.2815 51.9654 45.3329C51.914 45.3844 51.8445 45.4137 51.7718 45.4146H48.8711C48.7984 45.4136 48.7289 45.3843 48.6775 45.3329C48.6261 45.2815 48.5968 45.212 48.5958 45.1393V42.9146C48.5958 42.7365 48.5379 42.5633 48.4307 42.421C48.3235 42.2788 48.173 42.1753 48.0018 42.1262C47.3943 41.9515 46.8085 41.7085 46.2557 41.4018C46.0999 41.3153 45.9201 41.2819 45.7436 41.3067C45.5671 41.3314 45.4035 41.413 45.2775 41.5391L43.7036 43.1129C43.6515 43.1636 43.5816 43.192 43.5089 43.192C43.4362 43.192 43.3663 43.1636 43.3142 43.1129L41.2634 41.0621C41.2126 41.01 41.1842 40.9402 41.1842 40.8675C41.1842 40.7947 41.2126 40.7249 41.2634 40.6728L42.8373 39.0991C42.9633 38.9731 43.0448 38.8095 43.0696 38.6331C43.0944 38.4566 43.061 38.2769 42.9746 38.1211C42.6679 37.5683 42.4248 36.9825 42.2501 36.375C42.201 36.2038 42.0975 36.0532 41.9553 35.946C41.8131 35.8388 41.6398 35.7808 41.4617 35.7808H39.2368C39.1641 35.7799 39.0947 35.7506 39.0433 35.6992C38.9919 35.6478 38.9626 35.5783 38.9616 35.5057V32.6049C38.9625 32.5322 38.9918 32.4627 39.0432 32.4113C39.0946 32.3599 39.1641 32.3306 39.2368 32.3296H41.4616C41.6397 32.3296 41.8129 32.2717 41.9552 32.1645C42.0974 32.0573 42.2009 31.9068 42.25 31.7356C42.4247 31.1281 42.6677 30.5423 42.9745 29.9895C43.0609 29.8337 43.0942 29.654 43.0695 29.4776C43.0447 29.3011 42.9631 29.1376 42.8371 29.0116L41.2633 27.4378C41.2125 27.3857 41.1841 27.3158 41.1841 27.2431C41.1841 27.1703 41.2125 27.1004 41.2633 27.0484L43.3141 24.9976C43.3661 24.9467 43.4361 24.9182 43.5089 24.9182C43.5817 24.9182 43.6516 24.9467 43.7036 24.9976L45.2775 26.5709C45.4034 26.6969 45.567 26.7784 45.7435 26.8032C45.9199 26.8279 46.0996 26.7946 46.2554 26.7082C46.8084 26.4015 47.3943 26.1585 48.0021 25.9837C48.1732 25.9346 48.3237 25.8311 48.4309 25.6888C48.538 25.5466 48.596 25.3733 48.596 25.1953V22.9707C48.5969 22.898 48.6262 22.8285 48.6776 22.7771C48.729 22.7257 48.7984 22.6963 48.8711 22.6953H51.7713C51.844 22.6963 51.9135 22.7256 51.965 22.777C52.0164 22.8285 52.0457 22.898 52.0467 22.9707V25.1953C52.0466 25.3734 52.1046 25.5466 52.2117 25.6889C52.3189 25.8311 52.4694 25.9347 52.6406 25.9838C53.2483 26.1584 53.8343 26.4014 54.3873 26.7082C54.543 26.7946 54.7227 26.8279 54.8991 26.8031C55.0755 26.7784 55.2391 26.6969 55.3651 26.5709L56.9391 24.9971C56.9911 24.9463 57.061 24.9178 57.1337 24.9178C57.2065 24.9178 57.2763 24.9463 57.3283 24.9971L59.3791 27.0479C59.43 27.0999 59.4584 27.1698 59.4584 27.2425C59.4584 27.3153 59.43 27.3852 59.3791 27.4372L57.8048 29.0117C57.6789 29.1377 57.5973 29.3013 57.5726 29.4777C57.5478 29.6541 57.5812 29.8337 57.6676 29.9895C57.9743 30.5423 58.2172 31.1281 58.3918 31.7356C58.4409 31.9068 58.5444 32.0574 58.6867 32.1646C58.8289 32.2718 59.0022 32.3298 59.1803 32.3298H61.4051C61.4779 32.3307 61.5473 32.36 61.5988 32.4114C61.6502 32.4629 61.6795 32.5323 61.6804 32.605L61.6809 35.5052ZM34.4163 72.1155L32.4169 70.4186C32.2506 70.2814 32.037 70.2151 31.8222 70.2342C31.6074 70.2533 31.4088 70.3562 31.2693 70.5206C31.1298 70.685 31.0606 70.8977 31.0768 71.1127C31.0929 71.3277 31.1931 71.5278 31.3556 71.6695L31.6515 71.9206H30.8441C28.687 71.9124 26.6211 71.0498 25.0988 69.5217C23.5764 67.9935 22.7216 65.9244 22.7216 63.7674C22.7216 61.6103 23.5764 59.5412 25.0988 58.013C26.6211 56.4849 28.687 55.6223 30.8441 55.6141H43.2351V58.9816C43.2357 59.5163 43.4484 60.0289 43.8265 60.407C44.2046 60.785 44.7172 60.9977 45.2519 60.9983H54.3251C54.8598 60.9977 55.3725 60.785 55.7505 60.407C56.1286 60.0289 56.3413 59.5163 56.3419 58.9816V50.6062C56.3413 50.0715 56.1286 49.5589 55.7506 49.1808C55.3725 48.8027 54.8598 48.59 54.3251 48.5894H45.2519C44.7172 48.59 44.2046 48.8027 43.8265 49.1808C43.4484 49.5589 43.2357 50.0715 43.2351 50.6062V53.9735H30.8441C28.2524 53.9824 25.77 55.0182 23.9406 56.854C22.1112 58.6897 21.084 61.1757 21.084 63.7674C21.084 66.359 22.1112 68.845 23.9406 70.6807C25.77 72.5165 28.2524 73.5523 30.8441 73.5612H31.6511L31.3556 73.8125C31.2733 73.8822 31.2056 73.9674 31.1563 74.0632C31.1069 74.1591 31.077 74.2637 31.0681 74.3712C31.0593 74.4786 31.0717 74.5867 31.1047 74.6894C31.1376 74.792 31.1905 74.8871 31.2603 74.9693C31.33 75.0515 31.4153 75.1191 31.5112 75.1684C31.6071 75.2176 31.7118 75.2474 31.8192 75.2561C31.9267 75.2649 32.0348 75.2523 32.1374 75.2193C32.24 75.1862 32.3351 75.1332 32.4172 75.0634L34.4165 73.3667C34.5072 73.2897 34.5801 73.1939 34.6301 73.0859C34.6801 72.9779 34.706 72.8603 34.706 72.7413C34.706 72.6223 34.6801 72.5047 34.6301 72.3967C34.5801 72.2887 34.5072 72.1929 34.4165 72.1159L34.4163 72.1155ZM44.8757 50.6062C44.877 50.5069 44.9171 50.4119 44.9874 50.3417C45.0576 50.2714 45.1525 50.2313 45.2519 50.23H54.3251C54.4245 50.2313 54.5194 50.2714 54.5897 50.3417C54.66 50.4119 54.7 50.5069 54.7013 50.6062V58.9816C54.7 59.0809 54.6599 59.1758 54.5897 59.2461C54.5194 59.3163 54.4245 59.3563 54.3251 59.3577H45.2519C45.1526 59.3563 45.0577 59.3163 44.9874 59.2461C44.9171 59.1758 44.8771 59.0809 44.8757 58.9816V50.6062ZM69.2142 67.4178H62.4358C61.9232 67.4185 61.4318 67.6224 61.0693 67.9849C60.7068 68.3474 60.5029 68.8388 60.5022 69.3514V76.1298C60.5029 76.6424 60.7068 77.1338 61.0693 77.4963C61.4318 77.8587 61.9232 78.0627 62.4358 78.0634H69.2142C69.7268 78.0627 70.2182 77.8588 70.5807 77.4963C70.9432 77.1338 71.1471 76.6424 71.1478 76.1298V69.3518C71.1472 68.8391 70.9433 68.3475 70.5808 67.985C70.2183 67.6224 69.7269 67.4185 69.2142 67.4178ZM69.5071 76.1301C69.506 76.2075 69.4748 76.2813 69.4201 76.336C69.3654 76.3907 69.2915 76.422 69.2142 76.4231H62.4358C62.3585 76.422 62.2846 76.3907 62.2299 76.336C62.1752 76.2813 62.144 76.2075 62.1428 76.1301V69.3518C62.144 69.2744 62.1752 69.2005 62.2299 69.1458C62.2846 69.0911 62.3585 69.0599 62.4358 69.0588H69.2142C69.2915 69.0599 69.3654 69.0911 69.4201 69.1458C69.4748 69.2005 69.506 69.2744 69.5071 69.3518V76.1301ZM68.3092 70.8846C68.3854 70.9607 68.4459 71.0512 68.4871 71.1507C68.5283 71.2502 68.5495 71.3569 68.5495 71.4646C68.5495 71.5724 68.5283 71.6791 68.4871 71.7786C68.4459 71.8781 68.3854 71.9686 68.3092 72.0447L65.7568 74.5977C65.6806 74.6738 65.5902 74.7343 65.4907 74.7755C65.3911 74.8167 65.2844 74.8379 65.1767 74.8379C65.069 74.8379 64.9623 74.8167 64.8628 74.7755C64.7632 74.7343 64.6728 74.6738 64.5966 74.5977L63.3404 73.3414C63.1865 73.1876 63.1001 72.9789 63.1001 72.7613C63.1001 72.5438 63.1865 72.3351 63.3404 72.1813C63.4942 72.0274 63.7029 71.941 63.9205 71.941C64.138 71.941 64.3467 72.0274 64.5005 72.1813L65.1768 72.8574L67.1496 70.8848C67.3034 70.731 67.512 70.6445 67.7295 70.6445C67.9471 70.6444 68.1557 70.7308 68.3096 70.8846H68.3092ZM58.5784 72.115L56.5793 70.4182C56.4971 70.3483 56.4021 70.2953 56.2995 70.2623C56.1969 70.2292 56.0887 70.2167 55.9813 70.2254C55.8738 70.2341 55.7692 70.2639 55.6733 70.3132C55.5774 70.3624 55.4921 70.43 55.4223 70.5122C55.3526 70.5944 55.2997 70.6895 55.2667 70.7922C55.2338 70.8948 55.2214 71.0029 55.2302 71.1104C55.2391 71.2178 55.269 71.3224 55.3183 71.4183C55.3676 71.5142 55.4354 71.5994 55.5177 71.669L55.8134 71.9202H49.6728V68.5531C49.6722 68.0185 49.4595 67.5059 49.0814 67.1278C48.7034 66.7497 48.1908 66.5371 47.6561 66.5364H38.5836C38.0489 66.537 37.5363 66.7497 37.1582 67.1278C36.7801 67.5058 36.5674 68.0184 36.5668 68.5531V76.9285C36.5674 77.4632 36.7801 77.9758 37.1582 78.3539C37.5363 78.732 38.0489 78.9447 38.5836 78.9453H47.6569C48.1916 78.9447 48.7042 78.732 49.0823 78.3539C49.4604 77.9758 49.673 77.4632 49.6736 76.9285V73.5612H55.8137L55.518 73.8121C55.4357 73.8818 55.368 73.967 55.3187 74.0629C55.2694 74.1587 55.2394 74.2634 55.2306 74.3708C55.2217 74.4782 55.2341 74.5864 55.2671 74.689C55.3 74.7916 55.3529 74.8868 55.4227 74.969C55.4924 75.0512 55.5777 75.1188 55.6736 75.168C55.7695 75.2172 55.8742 75.2471 55.9816 75.2558C56.0891 75.2645 56.1972 75.252 56.2998 75.2189C56.4024 75.1858 56.4975 75.1329 56.5796 75.063L58.5782 73.3664C58.669 73.2894 58.7419 73.1935 58.7919 73.0855C58.8419 72.9775 58.8677 72.8599 58.8677 72.7409C58.8677 72.6219 58.8419 72.5043 58.7919 72.3963C58.7419 72.2883 58.669 72.1925 58.5782 72.1155L58.5784 72.115ZM48.0326 76.928C48.0313 77.0274 47.9913 77.1223 47.9211 77.1926C47.8508 77.2628 47.7559 77.3029 47.6566 77.3042H38.5836C38.4842 77.3029 38.3893 77.2629 38.319 77.1926C38.2488 77.1223 38.2087 77.0274 38.2074 76.928V68.5531C38.2087 68.4538 38.2488 68.3589 38.3191 68.2887C38.3893 68.2184 38.4842 68.1784 38.5836 68.1771H47.6569C47.7563 68.1784 47.8511 68.2185 47.9214 68.2887C47.9916 68.3589 48.0317 68.4538 48.033 68.5531L48.0326 76.928Z" fill="white"/>
<path d="M89.8082 21.5124L84.0596 18.1939C83.1212 17.6505 82.3378 16.8688 81.7961 15.9288L78.4776 10.1801C76.7808 7.24331 73.6223 5.41988 70.2321 5.41988H63.5951C62.5117 5.41988 61.44 5.13319 60.5016 4.58983L54.7546 1.27132C51.8178 -0.423773 48.1693 -0.423773 45.2325 1.27132L39.4855 4.58983C38.5471 5.13319 37.4754 5.41988 36.392 5.41988H29.7549C26.3648 5.41988 23.2046 7.24331 21.5095 10.1801L18.191 15.9288C17.6493 16.8688 16.8659 17.6522 15.9275 18.1939L10.1789 21.5141C7.24206 23.2108 5.41863 26.3693 5.41863 29.7595V36.3982C5.41863 37.4816 5.13195 38.5517 4.59025 39.4917L1.27007 45.242C-0.423356 48.1772 -0.423356 51.8257 1.27007 54.7609L4.59025 60.5095C5.13195 61.4496 5.41863 62.5196 5.41863 63.603V70.2417C5.41863 73.6319 7.24373 76.7904 10.1789 78.4872L15.9275 81.8057C16.8659 82.349 17.6493 83.1308 18.191 84.0708L21.5095 89.8195C23.2063 92.7563 26.3648 94.5797 29.7549 94.5797H36.392C37.4754 94.5797 38.5471 94.8664 39.4855 95.4098L45.2325 98.7283C46.7009 99.575 48.3476 100 49.9927 100C51.6378 100 53.2862 99.5766 54.753 98.7283L60.4999 95.4098C61.4383 94.8664 62.5101 94.5797 63.5934 94.5797H70.2305C73.6207 94.5797 76.7808 92.7563 78.4759 89.8195L81.7944 84.0708C82.3361 83.1308 83.1195 82.3474 84.0579 81.8057L89.8065 78.4855C92.7434 76.7887 94.5668 73.6302 94.5668 70.2401V63.6014C94.5668 62.518 94.8535 61.4479 95.3952 60.5079L98.7154 54.7575C100.409 51.8224 100.409 48.1739 98.7154 45.2387L95.3952 39.4901C94.8535 38.55 94.5668 37.4799 94.5668 36.3966V29.7579C94.5668 26.3677 92.7434 23.2092 89.8082 21.5124ZM95.8302 46.9038C96.9303 48.8122 96.9303 51.184 95.8302 53.0908L92.51 58.8411C91.6766 60.2862 91.2349 61.9313 91.2349 63.5997V70.2384C91.2349 72.4418 90.0499 74.4936 88.1414 75.5953L82.3928 78.9155C80.9494 79.7489 79.7443 80.954 78.9076 82.399L75.5891 88.1477C74.4874 90.0561 72.4339 91.2412 70.2305 91.2412H63.5934C61.925 91.2412 60.2799 91.6829 58.8332 92.5163L53.0862 95.8348C51.1778 96.9365 48.806 96.9365 46.8975 95.8348L41.1506 92.5163C39.7038 91.6829 38.0587 91.2412 36.3903 91.2412H29.7533C27.5498 91.2412 25.4964 90.0561 24.3947 88.1477L21.0761 82.3974C20.2394 80.9523 19.0344 79.7489 17.591 78.9139L11.8423 75.5937C9.93221 74.492 8.74881 72.4385 8.74881 70.2367V63.598C8.74881 61.9296 8.30712 60.2845 7.47374 58.8378L4.15356 53.0891C3.0535 51.1807 3.0535 48.8089 4.15356 46.9021L7.47374 41.1518C8.30712 39.7067 8.74881 38.0616 8.74881 36.3932V29.7545C8.74881 27.5511 9.93387 25.4993 11.8423 24.3976L17.591 21.0774C19.0344 20.244 20.2394 19.0389 21.0761 17.5939L24.3947 11.8452C25.4964 9.93679 27.5498 8.75172 29.7533 8.75172H36.3903C38.0587 8.75172 39.7038 8.31003 41.1506 7.47665L46.8975 4.15814C48.806 3.05642 51.1778 3.05642 53.0862 4.15814L58.8332 7.47665C60.2799 8.31003 61.925 8.75172 63.5934 8.75172H70.2305C72.4339 8.75172 74.4874 9.93679 75.5891 11.8452L78.9076 17.5955C79.7443 19.0406 80.9494 20.244 82.3928 21.0791L88.1414 24.3992C90.0515 25.501 91.2349 27.5544 91.2349 29.7562V36.3949C91.2349 38.0633 91.6766 39.7084 92.51 41.1551L95.8302 46.9038Z" fill="white"/>
</svg>
