<svg width="100" height="100" viewBox="0 0 100 100" fill="none" xmlns="http://www.w3.org/2000/svg">
<path d="M49.9892 18.8901C32.8366 18.8901 18.8809 32.8459 18.8809 49.9985C18.8809 67.1511 32.8366 81.1068 49.9892 81.1068C67.1418 81.1068 81.0976 67.1511 81.0976 49.9985C81.0976 32.8459 67.1418 18.8901 49.9892 18.8901ZM49.9892 77.7733C34.675 77.7733 22.2144 65.3127 22.2144 49.9985C22.2144 34.6843 34.675 22.2237 49.9892 22.2237C65.3034 22.2237 77.7641 34.6843 77.7641 49.9985C77.7641 65.3127 65.3034 77.7733 49.9892 77.7733Z" fill="white"/>
<path d="M89.8082 21.5124L84.0596 18.1939C83.1212 17.6505 82.3378 16.8688 81.7961 15.9288L78.4776 10.1801C76.7808 7.24331 73.6223 5.41988 70.2321 5.41988H63.5951C62.5117 5.41988 61.44 5.13319 60.5016 4.58983L54.7546 1.27132C51.8178 -0.423773 48.1693 -0.423773 45.2325 1.27132L39.4855 4.58983C38.5471 5.13319 37.4754 5.41988 36.392 5.41988H29.7549C26.3648 5.41988 23.2046 7.24331 21.5095 10.1801L18.191 15.9288C17.6493 16.8688 16.8659 17.6522 15.9275 18.1939L10.1789 21.5141C7.24206 23.2108 5.41863 26.3693 5.41863 29.7595V36.3982C5.41863 37.4816 5.13195 38.5517 4.59025 39.4917L1.27007 45.242C-0.423356 48.1772 -0.423356 51.8257 1.27007 54.7609L4.59025 60.5095C5.13195 61.4496 5.41863 62.5196 5.41863 63.603V70.2417C5.41863 73.6319 7.24373 76.7904 10.1789 78.4872L15.9275 81.8057C16.8659 82.349 17.6493 83.1308 18.191 84.0708L21.5095 89.8195C23.2063 92.7563 26.3648 94.5797 29.7549 94.5797H36.392C37.4754 94.5797 38.5471 94.8664 39.4855 95.4098L45.2325 98.7283C46.7009 99.575 48.3476 100 49.9927 100C51.6378 100 53.2862 99.5766 54.753 98.7283L60.4999 95.4098C61.4383 94.8664 62.5101 94.5797 63.5934 94.5797H70.2305C73.6207 94.5797 76.7808 92.7563 78.4759 89.8195L81.7944 84.0708C82.3361 83.1308 83.1195 82.3474 84.0579 81.8057L89.8065 78.4855C92.7434 76.7887 94.5668 73.6302 94.5668 70.2401V63.6014C94.5668 62.518 94.8535 61.4479 95.3952 60.5079L98.7154 54.7575C100.409 51.8224 100.409 48.1739 98.7154 45.2387L95.3952 39.4901C94.8535 38.55 94.5668 37.4799 94.5668 36.3966V29.7579C94.5668 26.3677 92.7434 23.2092 89.8082 21.5124ZM95.8302 46.9038C96.9303 48.8122 96.9303 51.184 95.8302 53.0908L92.51 58.8411C91.6766 60.2862 91.2349 61.9313 91.2349 63.5997V70.2384C91.2349 72.4418 90.0499 74.4936 88.1414 75.5953L82.3928 78.9155C80.9494 79.7489 79.7443 80.954 78.9076 82.399L75.5891 88.1477C74.4874 90.0561 72.4339 91.2412 70.2305 91.2412H63.5934C61.925 91.2412 60.2799 91.6829 58.8332 92.5163L53.0862 95.8348C51.1778 96.9365 48.806 96.9365 46.8975 95.8348L41.1506 92.5163C39.7038 91.6829 38.0587 91.2412 36.3903 91.2412H29.7533C27.5498 91.2412 25.4964 90.0561 24.3947 88.1477L21.0761 82.3974C20.2394 80.9523 19.0344 79.7489 17.591 78.9139L11.8423 75.5937C9.93221 74.492 8.74881 72.4385 8.74881 70.2367V63.598C8.74881 61.9296 8.30712 60.2845 7.47374 58.8378L4.15356 53.0891C3.0535 51.1807 3.0535 48.8089 4.15356 46.9021L7.47374 41.1518C8.30712 39.7067 8.74881 38.0616 8.74881 36.3932V29.7545C8.74881 27.5511 9.93387 25.4993 11.8423 24.3976L17.591 21.0774C19.0344 20.244 20.2394 19.0389 21.0761 17.5939L24.3947 11.8452C25.4964 9.93679 27.5498 8.75172 29.7533 8.75172H36.3903C38.0587 8.75172 39.7038 8.31003 41.1506 7.47665L46.8975 4.15814C48.806 3.05642 51.1778 3.05642 53.0862 4.15814L58.8332 7.47665C60.2799 8.31003 61.925 8.75172 63.5934 8.75172H70.2305C72.4339 8.75172 74.4874 9.93679 75.5891 11.8452L78.9076 17.5955C79.7443 19.0406 80.9494 20.244 82.3928 21.0791L88.1414 24.3992C90.0515 25.501 91.2349 27.5544 91.2349 29.7562V36.3949C91.2349 38.0633 91.6766 39.7084 92.51 41.1551L95.8302 46.9038Z" fill="white"/>
<path d="M49.9896 37.6182C52.9414 37.6182 55.3449 40.02 55.3449 42.9735C55.3449 43.8935 56.0899 44.6402 57.0116 44.6402C57.9333 44.6402 58.6784 43.8935 58.6784 42.9735C58.6784 38.7532 55.6516 35.2331 51.6563 34.453V31.4129C51.6563 30.4928 50.9113 29.7461 49.9896 29.7461C49.0679 29.7461 48.3228 30.4928 48.3228 31.4129V34.453C44.3276 35.2331 41.3008 38.7532 41.3008 42.9735C41.3008 47.7654 45.1993 51.6623 49.9896 51.6623C52.9414 51.6623 55.3449 54.0641 55.3449 57.0176C55.3449 59.9711 52.9431 62.3729 49.9896 62.3729C47.0361 62.3729 44.6343 59.9711 44.6343 57.0176C44.6343 56.0975 43.8893 55.3508 42.9675 55.3508C42.0458 55.3508 41.3008 56.0975 41.3008 57.0176C41.3008 61.2378 44.3276 64.758 48.3228 65.538V68.5782C48.3228 69.4982 49.0679 70.245 49.9896 70.245C50.9113 70.245 51.6563 69.4982 51.6563 68.5782V65.538C55.6516 64.758 58.6784 61.2378 58.6784 57.0176C58.6784 52.2256 54.7798 48.3288 49.9896 48.3288C47.0378 48.3288 44.6343 45.927 44.6343 42.9735C44.6343 40.02 47.0361 37.6182 49.9896 37.6182Z" fill="white"/>
</svg>
