<svg width="23" height="30" viewBox="0 0 23 30" fill="none" xmlns="http://www.w3.org/2000/svg">
<path d="M0.901157 13.5988C0.818644 13.5994 0.738786 13.5697 0.676789 13.5152C0.614792 13.4608 0.574986 13.3854 0.564949 13.3035C0.535811 13.0665 0.513957 12.8233 0.500509 12.5818C0.495604 12.4926 0.526323 12.4052 0.585907 12.3387C0.64549 12.2721 0.729057 12.232 0.818225 12.2271C0.907393 12.2222 0.994858 12.2529 1.06138 12.3125C1.1279 12.3721 1.16802 12.4557 1.17293 12.5448C1.18525 12.769 1.20543 12.9987 1.23288 13.2212C1.23829 13.265 1.23502 13.3094 1.22325 13.352C1.21147 13.3945 1.19144 13.4344 1.16427 13.4692C1.13711 13.504 1.10336 13.5331 1.06494 13.5549C1.02653 13.5766 0.984202 13.5906 0.940381 13.596C0.927369 13.5977 0.914274 13.5986 0.901157 13.5988Z" fill="#FFFCF2"/>
<path d="M11.4912 29.0443C11.0917 29.0468 10.7 28.9336 10.3635 28.7185C10.0269 28.5033 9.75979 28.1953 9.5944 27.8317L9.49074 27.6075C8.1812 24.7795 6.31133 22.2058 3.93321 19.9582C2.45384 18.5622 1.39084 16.783 0.862508 14.8187C0.851066 14.7761 0.848134 14.7316 0.853882 14.6878C0.859629 14.6441 0.873942 14.6018 0.896004 14.5636C0.918066 14.5254 0.947445 14.4918 0.982463 14.4649C1.01748 14.4381 1.05745 14.4183 1.1001 14.4069C1.14274 14.3954 1.18722 14.3925 1.23099 14.3983C1.27477 14.404 1.31699 14.4183 1.35523 14.4404C1.39347 14.4624 1.427 14.4918 1.45389 14.5268C1.48078 14.5619 1.50051 14.6018 1.51195 14.6445C2.00804 16.4887 3.00627 18.1591 4.3955 19.4696C6.83525 21.776 8.755 24.4192 10.101 27.3257L10.2046 27.5498C10.3178 27.796 10.4992 28.0047 10.7274 28.151C10.9555 28.2973 11.2208 28.3751 11.4918 28.3753C11.7628 28.3755 12.0281 28.298 12.2565 28.152C12.4848 28.006 12.6664 27.7976 12.78 27.5515L12.8842 27.3274C14.2501 24.3772 16.1747 21.7196 18.5515 19.5016C19.5818 18.5337 20.4034 17.3654 20.9658 16.0685C21.5281 14.7716 21.8194 13.3734 21.8217 11.9598C21.8217 6.34685 17.2577 1.71223 11.6475 1.62929C6.22391 1.54692 1.62906 5.71758 1.19311 11.1204C1.18943 11.1646 1.17709 11.2076 1.1568 11.247C1.1365 11.2864 1.10865 11.3214 1.07483 11.35C1.04101 11.3786 1.00188 11.4003 0.959682 11.4138C0.917483 11.4273 0.873039 11.4323 0.828888 11.4286C0.784736 11.425 0.741742 11.4126 0.702359 11.3923C0.662976 11.372 0.627977 11.3442 0.599358 11.3104C0.57074 11.2765 0.549064 11.2374 0.535567 11.1952C0.52207 11.153 0.517017 11.1086 0.520697 11.0644C0.988026 5.31189 5.8793 0.872266 11.6593 0.956878C13.8526 0.989005 15.9862 1.67607 17.7861 2.92982C19.586 4.18357 20.9701 5.94677 21.7605 7.99296C22.5508 10.0391 22.7115 12.2749 22.2218 14.4131C21.7321 16.5512 20.6143 18.4942 19.0122 19.9924C16.6972 22.1501 14.8226 24.7362 13.4922 27.6075L13.388 27.8317C13.2222 28.195 12.955 28.5027 12.6185 28.7178C12.282 28.9329 11.8905 29.0463 11.4912 29.0443Z" fill="#FFFCF2"/>
<path d="M11.4914 20.1617C6.96886 20.1617 3.28906 16.4824 3.28906 11.9593C3.28906 7.43618 6.96886 3.75751 11.4914 3.75751C16.014 3.75751 19.6938 7.43506 19.6938 11.9593C19.6938 16.4835 16.014 20.1617 11.4914 20.1617ZM11.4914 4.42992C7.33925 4.42992 3.96148 7.80769 3.96148 11.9593C3.96148 16.1109 7.33925 19.4892 11.4914 19.4892C15.6436 19.4892 19.0214 16.1115 19.0214 11.9593C19.0214 7.80713 15.6436 4.42992 11.4914 4.42992Z" fill="#FFFCF2"/>
<path d="M11.6836 16.8775C11.6287 16.8775 11.5726 16.8747 11.5155 16.8691C11.1901 16.8384 10.8825 16.7064 10.6362 16.4916C10.3898 16.2769 10.217 15.9903 10.1421 15.6722L9.81089 14.3083C9.77195 14.1465 9.68908 13.9986 9.57141 13.881C9.45375 13.7633 9.30587 13.6804 9.14408 13.6415L7.78132 13.3098C7.46466 13.2321 7.1798 13.0583 6.96584 12.8123C6.75187 12.5662 6.61928 12.26 6.58625 11.9356C6.55322 11.6113 6.62138 11.2846 6.78137 11.0005C6.94137 10.7164 7.18535 10.4888 7.47985 10.3489L14.1513 7.2003C14.4454 7.06163 14.7751 7.01707 15.0954 7.07271C15.4157 7.12835 15.7111 7.28147 15.9411 7.51118C16.1712 7.74088 16.3248 8.03598 16.381 8.35621C16.4371 8.67644 16.3931 9.00619 16.2549 9.30047L13.1052 15.972C12.9798 16.2432 12.7792 16.4727 12.5272 16.6332C12.2752 16.7938 11.9824 16.8785 11.6836 16.8775ZM10.7954 15.5119C10.8398 15.6942 10.9396 15.8582 11.0811 15.9813C11.2225 16.1045 11.3987 16.1808 11.5853 16.1997C11.7719 16.2187 11.9598 16.1793 12.1231 16.087C12.2864 15.9947 12.4171 15.8541 12.4972 15.6845L15.6458 9.01302C15.7255 8.84401 15.7511 8.65451 15.7191 8.47041C15.687 8.28632 15.5989 8.1166 15.4668 7.98447C15.3347 7.85233 15.1649 7.76423 14.9808 7.73219C14.7967 7.70015 14.6072 7.72574 14.4382 7.80547L7.76675 10.9546C7.59713 11.0347 7.45651 11.1654 7.36424 11.3287C7.27197 11.492 7.23259 11.6799 7.25151 11.8665C7.27044 12.0531 7.34674 12.2293 7.46992 12.3707C7.5931 12.5122 7.7571 12.612 7.93934 12.6564L9.3021 12.9876C9.58388 13.0555 9.84143 13.1999 10.0464 13.4049C10.2513 13.6098 10.3958 13.8674 10.4637 14.1492L10.7954 15.5119Z" fill="#FFFCF2"/>
</svg>
