<svg width="102" height="102" viewBox="0 0 102 102" fill="none" xmlns="http://www.w3.org/2000/svg">
<path d="M29.125 9.33334H22.875C22.0462 9.33334 21.2513 9.66258 20.6653 10.2486C20.0792 10.8347 19.75 11.6295 19.75 12.4583V18.7083C19.75 19.5371 20.0792 20.332 20.6653 20.9181C21.2513 21.5041 22.0462 21.8333 22.875 21.8333H29.125C29.9538 21.8333 30.7487 21.5041 31.3347 20.9181C31.9208 20.332 32.25 19.5371 32.25 18.7083V12.4583C32.25 11.6295 31.9208 10.8347 31.3347 10.2486C30.7487 9.66258 29.9538 9.33334 29.125 9.33334ZM30.1667 18.7083C30.1667 18.9846 30.0569 19.2496 29.8616 19.4449C29.6662 19.6403 29.4013 19.75 29.125 19.75H22.875C22.5987 19.75 22.3338 19.6403 22.1384 19.4449C21.9431 19.2496 21.8333 18.9846 21.8333 18.7083V12.4583C21.8333 12.1821 21.9431 11.9171 22.1384 11.7218C22.3338 11.5264 22.5987 11.4167 22.875 11.4167H29.125C29.4013 11.4167 29.6662 11.5264 29.8616 11.7218C30.0569 11.9171 30.1667 12.1821 30.1667 12.4583V18.7083Z" fill="#064685" stroke="#064685"/>
<path d="M29.125 30.1667H22.875C22.0462 30.1667 21.2513 30.4959 20.6653 31.0819C20.0792 31.668 19.75 32.4629 19.75 33.2917V39.5417C19.75 40.3705 20.0792 41.1653 20.6653 41.7514C21.2513 42.3374 22.0462 42.6667 22.875 42.6667H29.125C29.9538 42.6667 30.7487 42.3374 31.3347 41.7514C31.9208 41.1653 32.25 40.3705 32.25 39.5417V33.2917C32.25 32.4629 31.9208 31.668 31.3347 31.0819C30.7487 30.4959 29.9538 30.1667 29.125 30.1667ZM30.1667 39.5417C30.1667 39.8179 30.0569 40.0829 29.8616 40.2782C29.6662 40.4736 29.4013 40.5833 29.125 40.5833H22.875C22.5987 40.5833 22.3338 40.4736 22.1384 40.2782C21.9431 40.0829 21.8333 39.8179 21.8333 39.5417V33.2917C21.8333 33.0154 21.9431 32.7504 22.1384 32.5551C22.3338 32.3597 22.5987 32.25 22.875 32.25H29.125C29.4013 32.25 29.6662 32.3597 29.8616 32.5551C30.0569 32.7504 30.1667 33.0154 30.1667 33.2917V39.5417Z" fill="#064685" stroke="#064685"/>
<path d="M29.125 51H22.875C22.0462 51 21.2513 51.3292 20.6653 51.9153C20.0792 52.5013 19.75 53.2962 19.75 54.125V60.375C19.75 61.2038 20.0792 61.9987 20.6653 62.5847C21.2513 63.1708 22.0462 63.5 22.875 63.5H29.125C29.9538 63.5 30.7487 63.1708 31.3347 62.5847C31.9208 61.9987 32.25 61.2038 32.25 60.375V54.125C32.25 53.2962 31.9208 52.5013 31.3347 51.9153C30.7487 51.3292 29.9538 51 29.125 51ZM30.1667 60.375C30.1667 60.6513 30.0569 60.9162 29.8616 61.1116C29.6662 61.3069 29.4013 61.4167 29.125 61.4167H22.875C22.5987 61.4167 22.3338 61.3069 22.1384 61.1116C21.9431 60.9162 21.8333 60.6513 21.8333 60.375V54.125C21.8333 53.8487 21.9431 53.5838 22.1384 53.3884C22.3338 53.1931 22.5987 53.0833 22.875 53.0833H29.125C29.4013 53.0833 29.6662 53.1931 29.8616 53.3884C30.0569 53.5838 30.1667 53.8487 30.1667 54.125V60.375Z" fill="#064685" stroke="#064685"/>
<path d="M29.125 71.8333H22.875C22.0462 71.8333 21.2513 72.1626 20.6653 72.7486C20.0792 73.3347 19.75 74.1295 19.75 74.9583V81.2083C19.75 82.0371 20.0792 82.832 20.6653 83.4181C21.2513 84.0041 22.0462 84.3333 22.875 84.3333H29.125C29.9538 84.3333 30.7487 84.0041 31.3347 83.4181C31.9208 82.832 32.25 82.0371 32.25 81.2083V74.9583C32.25 74.1295 31.9208 73.3347 31.3347 72.7486C30.7487 72.1626 29.9538 71.8333 29.125 71.8333ZM30.1667 81.2083C30.1667 81.4846 30.0569 81.7496 29.8616 81.9449C29.6662 82.1403 29.4013 82.25 29.125 82.25H22.875C22.5987 82.25 22.3338 82.1403 22.1384 81.9449C21.9431 81.7496 21.8333 81.4846 21.8333 81.2083V74.9583C21.8333 74.6821 21.9431 74.4171 22.1384 74.2218C22.3338 74.0264 22.5987 73.9167 22.875 73.9167H29.125C29.4013 73.9167 29.6662 74.0264 29.8616 74.2218C30.0569 74.4171 30.1667 74.6821 30.1667 74.9583V81.2083Z" fill="#064685" stroke="#064685"/>
<path d="M47.875 21.8333H54.125C54.9538 21.8333 55.7487 21.5041 56.3347 20.9181C56.9208 20.332 57.25 19.5371 57.25 18.7083V12.4583C57.25 11.6295 56.9208 10.8347 56.3347 10.2486C55.7487 9.66258 54.9538 9.33334 54.125 9.33334H47.875C47.0462 9.33334 46.2513 9.66258 45.6653 10.2486C45.0792 10.8347 44.75 11.6295 44.75 12.4583V18.7083C44.75 19.5371 45.0792 20.332 45.6653 20.9181C46.2513 21.5041 47.0462 21.8333 47.875 21.8333ZM46.8333 12.4583C46.8333 12.1821 46.9431 11.9171 47.1384 11.7218C47.3338 11.5264 47.5987 11.4167 47.875 11.4167H54.125C54.4013 11.4167 54.6662 11.5264 54.8616 11.7218C55.0569 11.9171 55.1667 12.1821 55.1667 12.4583V18.7083C55.1667 18.9846 55.0569 19.2496 54.8616 19.4449C54.6662 19.6403 54.4013 19.75 54.125 19.75H47.875C47.5987 19.75 47.3338 19.6403 47.1384 19.4449C46.9431 19.2496 46.8333 18.9846 46.8333 18.7083V12.4583Z" fill="#064685" stroke="#064685"/>
<path d="M95.7917 88.5H90.5833V31.2083C90.5833 29.827 90.0346 28.5022 89.0578 27.5255C88.0811 26.5487 86.7563 26 85.375 26H67.6667V6.20833C67.6667 4.827 67.1179 3.50224 66.1412 2.52549C65.1644 1.54873 63.8397 1 62.4583 1L14.5417 1C13.1603 1 11.8356 1.54873 10.8588 2.52549C9.88207 3.50224 9.33333 4.827 9.33333 6.20833V88.5H6.20833C4.827 88.5 3.50224 89.0487 2.52549 90.0255C1.54873 91.0022 1 92.327 1 93.7083L1 95.7917C1 96.4756 1.13472 97.1529 1.39646 97.7848C1.6582 98.4167 2.04185 98.9909 2.52549 99.4745C3.00912 99.9582 3.58329 100.342 4.21519 100.604C4.84709 100.865 5.52436 101 6.20833 101H95.7917C96.4756 101 97.1529 100.865 97.7848 100.604C98.4167 100.342 98.9909 99.9582 99.4745 99.4745C99.9582 98.9909 100.342 98.4167 100.604 97.7848C100.865 97.1529 101 96.4756 101 95.7917V93.7083C101 93.0244 100.865 92.3471 100.604 91.7152C100.342 91.0833 99.9582 90.5091 99.4745 90.0255C98.9909 89.5418 98.4167 89.1582 97.7848 88.8965C97.1529 88.6347 96.4756 88.5 95.7917 88.5ZM85.375 28.0833C86.2038 28.0833 86.9987 28.4126 87.5847 28.9986C88.1708 29.5847 88.5 30.3795 88.5 31.2083V88.5H76V78.0833C76 75.8732 75.122 73.7536 73.5592 72.1908C71.9964 70.628 69.8768 69.75 67.6667 69.75C65.4565 69.75 63.3369 70.628 61.7741 72.1908C60.2113 73.7536 59.3333 75.8732 59.3333 78.0833V88.5H46.8333V31.2083C46.8333 30.3795 47.1626 29.5847 47.7486 28.9986C48.3347 28.4126 49.1295 28.0833 49.9583 28.0833H85.375ZM73.9167 78.0833V88.5H61.4167V78.0833C61.4167 76.4257 62.0751 74.836 63.2472 73.6639C64.4193 72.4918 66.0091 71.8333 67.6667 71.8333C69.3243 71.8333 70.914 72.4918 72.0861 73.6639C73.2582 74.836 73.9167 76.4257 73.9167 78.0833ZM11.4167 6.20833C11.4167 5.37953 11.7459 4.58468 12.332 3.99862C12.918 3.41257 13.7129 3.08333 14.5417 3.08333H62.4583C63.2871 3.08333 64.082 3.41257 64.668 3.99862C65.2541 4.58468 65.5833 5.37953 65.5833 6.20833V26H49.9583C48.577 26 47.2522 26.5487 46.2755 27.5255C45.2987 28.5022 44.75 29.827 44.75 31.2083V88.5H11.4167V6.20833ZM98.9167 95.7917C98.9167 96.6205 98.5874 97.4153 98.0014 98.0014C97.4153 98.5874 96.6205 98.9167 95.7917 98.9167H6.20833C5.37953 98.9167 4.58468 98.5874 3.99862 98.0014C3.41257 97.4153 3.08333 96.6205 3.08333 95.7917V93.7083C3.08333 92.8795 3.41257 92.0847 3.99862 91.4986C4.58468 90.9126 5.37953 90.5833 6.20833 90.5833H95.7917C96.6205 90.5833 97.4153 90.9126 98.0014 91.4986C98.5874 92.0847 98.9167 92.8795 98.9167 93.7083V95.7917Z" fill="#064685" stroke="#064685"/>
<path d="M54.125 46.8333H60.375C61.2038 46.8333 61.9987 46.5041 62.5847 45.918C63.1708 45.332 63.5 44.5371 63.5 43.7083V37.4583C63.5 36.6295 63.1708 35.8347 62.5847 35.2486C61.9987 34.6626 61.2038 34.3333 60.375 34.3333H54.125C53.2962 34.3333 52.5013 34.6626 51.9153 35.2486C51.3292 35.8347 51 36.6295 51 37.4583V43.7083C51 44.5371 51.3292 45.332 51.9153 45.918C52.5013 46.5041 53.2962 46.8333 54.125 46.8333ZM53.0833 37.4583C53.0833 37.1821 53.1931 36.9171 53.3884 36.7218C53.5838 36.5264 53.8487 36.4167 54.125 36.4167H60.375C60.6513 36.4167 60.9162 36.5264 61.1116 36.7218C61.3069 36.9171 61.4167 37.1821 61.4167 37.4583V43.7083C61.4167 43.9846 61.3069 44.2496 61.1116 44.4449C60.9162 44.6403 60.6513 44.75 60.375 44.75H54.125C53.8487 44.75 53.5838 44.6403 53.3884 44.4449C53.1931 44.2496 53.0833 43.9846 53.0833 43.7083V37.4583Z" fill="#064685" stroke="#064685"/>
<path d="M54.125 65.5833H60.375C61.2038 65.5833 61.9987 65.2541 62.5847 64.668C63.1708 64.082 63.5 63.2871 63.5 62.4583V56.2083C63.5 55.3795 63.1708 54.5847 62.5847 53.9986C61.9987 53.4126 61.2038 53.0833 60.375 53.0833H54.125C53.2962 53.0833 52.5013 53.4126 51.9153 53.9986C51.3292 54.5847 51 55.3795 51 56.2083V62.4583C51 63.2871 51.3292 64.082 51.9153 64.668C52.5013 65.2541 53.2962 65.5833 54.125 65.5833ZM53.0833 56.2083C53.0833 55.9321 53.1931 55.6671 53.3884 55.4718C53.5838 55.2764 53.8487 55.1667 54.125 55.1667H60.375C60.6513 55.1667 60.9162 55.2764 61.1116 55.4718C61.3069 55.6671 61.4167 55.9321 61.4167 56.2083V62.4583C61.4167 62.7346 61.3069 62.9996 61.1116 63.1949C60.9162 63.3903 60.6513 63.5 60.375 63.5H54.125C53.8487 63.5 53.5838 63.3903 53.3884 63.1949C53.1931 62.9996 53.0833 62.7346 53.0833 62.4583V56.2083Z" fill="#064685" stroke="#064685"/>
<path d="M74.959 46.8333H81.209C82.0378 46.8333 82.8326 46.5041 83.4187 45.918C84.0047 45.332 84.334 44.5371 84.334 43.7083V37.4583C84.334 36.6295 84.0047 35.8347 83.4187 35.2486C82.8326 34.6626 82.0378 34.3333 81.209 34.3333H74.959C74.1302 34.3333 73.3353 34.6626 72.7493 35.2486C72.1632 35.8347 71.834 36.6295 71.834 37.4583V43.7083C71.834 44.5371 72.1632 45.332 72.7493 45.918C73.3353 46.5041 74.1302 46.8333 74.959 46.8333ZM73.9173 37.4583C73.9173 37.1821 74.0271 36.9171 74.2224 36.7218C74.4178 36.5264 74.6827 36.4167 74.959 36.4167H81.209C81.4853 36.4167 81.7502 36.5264 81.9456 36.7218C82.1409 36.9171 82.2507 37.1821 82.2507 37.4583V43.7083C82.2507 43.9846 82.1409 44.2496 81.9456 44.4449C81.7502 44.6403 81.4853 44.75 81.209 44.75H74.959C74.6827 44.75 74.4178 44.6403 74.2224 44.4449C74.0271 44.2496 73.9173 43.9846 73.9173 43.7083V37.4583Z" fill="#064685" stroke="#064685"/>
<path d="M74.959 65.5833H81.209C82.0378 65.5833 82.8326 65.2541 83.4187 64.668C84.0047 64.082 84.334 63.2871 84.334 62.4583V56.2083C84.334 55.3795 84.0047 54.5847 83.4187 53.9986C82.8326 53.4126 82.0378 53.0833 81.209 53.0833H74.959C74.1302 53.0833 73.3353 53.4126 72.7493 53.9986C72.1632 54.5847 71.834 55.3795 71.834 56.2083V62.4583C71.834 63.2871 72.1632 64.082 72.7493 64.668C73.3353 65.2541 74.1302 65.5833 74.959 65.5833ZM73.9173 56.2083C73.9173 55.9321 74.0271 55.6671 74.2224 55.4718C74.4178 55.2764 74.6827 55.1667 74.959 55.1667H81.209C81.4853 55.1667 81.7502 55.2764 81.9456 55.4718C82.1409 55.6671 82.2507 55.9321 82.2507 56.2083V62.4583C82.2507 62.7346 82.1409 62.9996 81.9456 63.1949C81.7502 63.3903 81.4853 63.5 81.209 63.5H74.959C74.6827 63.5 74.4178 63.3903 74.2224 63.1949C74.0271 62.9996 73.9173 62.7346 73.9173 62.4583V56.2083Z" fill="#064685" stroke="#064685"/>
</svg>
