<svg width="100" height="100" viewBox="0 0 100 100" fill="none" xmlns="http://www.w3.org/2000/svg">
<path d="M98.3333 0H1.66667C0.745443 0 0 0.746256 0 1.66667V98.3333C0 99.2537 0.745443 100 1.66667 100H98.3333C99.2546 100 100 99.2537 100 98.3333V1.66667C100 0.746256 99.2546 0 98.3333 0ZM96.6667 96.6667H3.33333V3.33333H96.6667V96.6667Z" fill="#064685"/>
<path d="M50.0007 93.3333C50.9219 93.3333 51.6673 92.5871 51.6673 91.6667V8.33333C51.6673 7.41292 50.9219 6.66666 50.0007 6.66666C49.0794 6.66666 48.334 7.41292 48.334 8.33333V91.6667C48.334 92.5871 49.0794 93.3333 50.0007 93.3333Z" fill="#064685"/>
<path d="M14.3324 24.6663L16.6664 22.9161V33.3333C16.6664 34.2537 17.4119 35 18.3331 35H34.9997C35.921 35 36.6664 34.2537 36.6664 33.3333V22.9161L39.0004 24.6663C39.2999 24.8918 39.6498 25 39.9981 25C40.5059 25 41.0056 24.7697 41.3328 24.3335C41.8861 23.597 41.7364 22.5521 40.9991 22.0003L27.6658 12.0003C27.0733 11.556 26.2595 11.556 25.6671 12.0003L12.3337 22.0003C11.5964 22.5521 11.4467 23.597 12.0001 24.3335C12.5518 25.0675 13.5951 25.2189 14.3324 24.6663ZM26.6664 15.4167L33.3331 20.4163V31.6667H19.9997V20.4163L26.6664 15.4167Z" fill="#064685"/>
<path d="M75.9997 67.0003C75.4073 66.556 74.5935 66.556 74.0011 67.0003L60.6677 77.0003C59.9304 77.5521 59.7807 78.597 60.3341 79.3335C60.8842 80.0676 61.9291 80.2181 62.6664 79.6664L65.0004 77.9161V88.3333C65.0004 89.2538 65.7458 90 66.6671 90H83.3337C84.255 90 85.0004 89.2538 85.0004 88.3333V77.9161L87.3344 79.6664C87.6339 79.8918 87.9838 80 88.3321 80C88.8399 80 89.3396 79.7697 89.6667 79.3335C90.2201 78.597 90.0704 77.5521 89.3331 77.0003L75.9997 67.0003ZM81.6671 86.6667H68.3337V75.4163L75.0004 70.4167L81.6671 75.4163V86.6667Z" fill="#064685"/>
<path d="M34.9993 38.3333H18.3327C17.4115 38.3333 16.666 39.0796 16.666 40C16.666 40.9204 17.4115 41.6667 18.3327 41.6667H34.9993C35.9206 41.6667 36.666 40.9204 36.666 40C36.666 39.0796 35.9206 38.3333 34.9993 38.3333Z" fill="#064685"/>
<path d="M34.9993 45H18.3327C17.4115 45 16.666 45.7463 16.666 46.6667C16.666 47.5871 17.4115 48.3333 18.3327 48.3333H34.9993C35.9206 48.3333 36.666 47.5871 36.666 46.6667C36.666 45.7463 35.9206 45 34.9993 45Z" fill="#064685"/>
<path d="M66.6667 55H83.3333C84.2546 55 85 54.2537 85 53.3333C85 52.4129 84.2546 51.6667 83.3333 51.6667H66.6667C65.7454 51.6667 65 52.4129 65 53.3333C65 54.2537 65.7454 55 66.6667 55Z" fill="#064685"/>
<path d="M66.6667 61.6667H83.3333C84.2546 61.6667 85 60.9204 85 60C85 59.0796 84.2546 58.3333 83.3333 58.3333H66.6667C65.7454 58.3333 65 59.0796 65 60C65 60.9204 65.7454 61.6667 66.6667 61.6667Z" fill="#064685"/>
<path d="M58.3327 41.6667H91.666C92.5872 41.6667 93.3327 40.9204 93.3327 40C93.3327 39.0796 92.5872 38.3333 91.666 38.3333H58.3327C57.4115 38.3333 56.666 39.0796 56.666 40C56.666 40.9204 57.4115 41.6667 58.3327 41.6667Z" fill="#064685"/>
<path d="M10.0007 65H43.334C44.2552 65 45.0007 64.2537 45.0007 63.3333C45.0007 62.4129 44.2552 61.6667 43.334 61.6667H10.0007C9.07943 61.6667 8.33398 62.4129 8.33398 63.3333C8.33398 64.2537 9.07943 65 10.0007 65Z" fill="#064685"/>
<path d="M65.0007 31.6667H85.0007C85.9219 31.6667 86.6673 30.9204 86.6673 30V10C86.6673 9.07959 85.9219 8.33334 85.0007 8.33334H65.0007C64.0794 8.33334 63.334 9.07959 63.334 10V30C63.334 30.9204 64.0794 31.6667 65.0007 31.6667ZM66.6673 11.6667H83.334V28.3333H66.6673V11.6667Z" fill="#064685"/>
<path d="M36.6667 70H16.6667C15.7454 70 15 70.7463 15 71.6667V91.6667C15 92.5871 15.7454 93.3333 16.6667 93.3333H36.6667C37.5879 93.3333 38.3333 92.5871 38.3333 91.6667V71.6667C38.3333 70.7463 37.5879 70 36.6667 70ZM35 90H18.3333V73.3333H35V90Z" fill="#064685"/>
</svg>
