<svg width="32" height="32" viewBox="0 0 32 32" fill="none" xmlns="http://www.w3.org/2000/svg">
<path d="M5.8935 27.955C0.0483999 23.6004 -1.6412 15.3498 1.69234 8.8409C5.07154 2.19453 12.6519 -1.38077 19.2733 0.498553C27.8583 2.92792 30.6895 13.2871 24.5248 19.6126C24.1594 19.9793 23.7485 20.2085 23.3375 20.5294C23.6115 18.7417 24.2051 17.0457 24.1138 15.3498C23.7485 10.0785 18.634 6.68656 13.3825 8.01584C5.39119 10.0785 1.32702 19.2459 5.16287 26.5799C5.39119 27.0382 5.66518 27.4966 5.8935 27.955Z" fill="#064685"/>
<path d="M8.4502 12.3245C8.22188 13.4246 7.99355 14.158 7.94789 14.8914C7.30858 20.3918 11.8294 24.8838 17.3548 24.1963C26.0768 23.0962 31.1 14.708 27.9491 6.45733C27.8121 6.13647 27.7208 5.76977 27.4924 5.21973C31.6023 8.61167 33.1092 15.5331 31.1456 21.2627C28.2231 29.7884 18.5421 34.3721 11.1901 30.751C4.61435 27.5424 2.74209 19.1542 7.21725 13.4704C7.49124 13.1037 7.85656 12.8745 8.4502 12.3245Z" fill="#064685"/>
</svg>
