<svg width="102" height="102" viewBox="0 0 102 102" fill="none" xmlns="http://www.w3.org/2000/svg">
<path d="M51 1C23.3848 1 1 23.3848 1 51C1 78.6152 23.3848 101 51 101C78.6133 101 101 78.6152 101 51C101 23.3848 78.6152 1 51 1ZM84.9746 84.9746C75.9004 94.0488 63.834 99.0469 51 99.0469C38.166 99.0469 26.0996 94.0488 17.0254 84.9746C7.95117 75.9004 2.95312 63.834 2.95312 51C2.95312 38.166 7.95117 26.0996 17.0254 17.0254C26.0996 7.95117 38.166 2.95312 51 2.95312C63.834 2.95312 75.9004 7.95117 84.9746 17.0254C94.0488 26.0996 99.0469 38.166 99.0469 51C99.0469 63.834 94.0488 75.9004 84.9746 84.9746ZM71.2031 34.6406H64.7695C64.5684 33.7812 64.3125 32.9492 64.0039 32.1484H69.0293C69.918 32.1484 70.6953 31.5488 70.9199 30.6875L73.1328 22.1953C73.2852 21.6094 73.1582 20.9863 72.7891 20.5078C72.4199 20.0293 71.8477 19.748 71.2441 19.748H33.375C32.4687 19.748 31.6816 20.3711 31.4746 21.252L28.8984 32.1582C28.7617 32.7383 28.8984 33.3516 29.2676 33.8184C29.6387 34.2871 30.2031 34.5586 30.7988 34.5586H41.5918C41.9453 34.5703 42.2754 34.5977 42.582 34.6367H32.9727C32.084 34.6367 31.3066 35.2363 31.082 36.0977L28.8691 44.5898C28.7168 45.1758 28.8438 45.7988 29.2129 46.2773C29.582 46.7559 30.1543 47.0371 30.7578 47.0371H45.5508C44.5742 48.0078 43.2207 48.4824 41.4023 48.5234H31.9258C31.4062 48.5234 30.9082 48.7305 30.541 49.0996C30.1738 49.4688 29.9707 49.9668 29.9727 50.4863L30.0137 58.2539C30.0156 58.709 30.1777 59.1484 30.4688 59.498L48.9395 81.5508C49.3105 81.9941 49.8594 82.25 50.4375 82.25H65.5684C66.6465 82.25 67.5215 81.375 67.5215 80.2969V79.6953C67.5215 79.2461 67.3672 78.8105 67.082 78.4609L52.4981 60.5703C55.6777 59.2891 58.2617 57.6094 60.2031 55.5625C62.3672 53.2832 63.8652 50.4199 64.6719 47.0371H68.9883C69.877 47.0371 70.6543 46.4375 70.8789 45.5762L73.0918 37.084C73.2441 36.498 73.1172 35.875 72.748 35.3965C72.3789 34.918 71.8066 34.6367 71.2031 34.6367V34.6406ZM68.9902 45.0859H63.0742C62.457 48.8164 61.0273 51.8613 58.7891 54.2207C56.5488 56.582 53.3633 58.3926 49.2305 59.6543L65.5684 79.6973V80.2988H50.4375L31.9668 58.2461L31.9258 50.4785H41.4238C45.2598 50.3984 47.7422 48.6016 48.8691 45.0859H30.7598L32.9727 36.5938H48.5469C47.3652 34.0449 45.0586 32.7168 41.625 32.6094H30.7988L33.375 21.7031H71.2441L69.0312 30.1953H60.8613C62.041 32.0879 62.8066 34.2207 63.1543 36.5938H71.2031L68.9902 45.0859Z" fill="#064685" stroke="#064685"/>
</svg>
