<svg width="102" height="100" viewBox="0 0 102 100" fill="none" xmlns="http://www.w3.org/2000/svg">
<path fill-rule="evenodd" clip-rule="evenodd" d="M6.05097 83.2796C6.93635 83.1553 7.84124 83.1553 8.72638 83.2796C8.78876 83.2884 8.84608 83.2714 8.89377 83.2304C8.94146 83.1891 8.96603 83.1351 8.96603 83.0723V7.39887C8.96603 7.30532 9.02504 7.22592 9.11488 7.19857C9.20472 7.17123 9.29817 7.20433 9.35067 7.28181L11.8958 11.0441C12.3823 11.7625 13.3616 11.952 14.0832 11.4675C14.8046 10.9829 14.9949 10.0076 14.5083 9.28889L8.73963 0.76138L8.73698 0.757542C8.08643 -0.252115 6.69116 -0.253314 6.03965 0.758742L6.037 0.76282L0.269501 9.28913C-0.217025 10.0076 -0.02675 10.9829 0.694609 11.4677C1.41597 11.9523 2.39528 11.7628 2.88205 11.0443L5.42691 7.28205C5.47942 7.20433 5.57287 7.17147 5.66271 7.19881C5.75255 7.22616 5.81156 7.30556 5.81156 7.39911V83.072C5.81156 83.1349 5.83637 83.1889 5.88382 83.2301C5.9315 83.2714 5.98859 83.2882 6.05097 83.2796ZM87.3591 78.6369C87.3591 77.7693 86.6529 77.0659 85.7817 77.0659C84.9105 77.0659 84.2044 77.7693 84.2044 78.6369V83.8773C84.2044 84.745 84.9105 85.4483 85.7817 85.4483C86.6529 85.4483 87.3591 84.745 87.3591 83.8773V78.6369ZM87.3591 66.8086C87.3591 65.941 86.6529 65.2377 85.7817 65.2377C84.9105 65.2377 84.2044 65.941 84.2044 66.8086V72.0491C84.2044 72.9167 84.9105 73.62 85.7817 73.62C86.6529 73.62 87.3591 72.9167 87.3591 72.0491V66.8086ZM85.7817 53.4094C84.9105 53.4094 84.2044 54.1127 84.2044 54.9804V60.2208C84.2044 61.0884 84.9105 61.7918 85.7817 61.7918C86.6529 61.7918 87.3591 61.0884 87.3591 60.2208V54.9804C87.3591 54.1127 86.6529 53.4094 85.7817 53.4094ZM85.7817 41.5809C84.9105 41.5809 84.2044 42.2842 84.2044 43.1519V48.3923C84.2044 49.2599 84.9105 49.9633 85.7817 49.9633C86.6529 49.9633 87.3591 49.2599 87.3591 48.3923V43.1519C87.3591 42.2844 86.6529 41.5809 85.7817 41.5809ZM85.7817 29.7526C84.9105 29.7526 84.2044 30.4559 84.2044 31.3236V36.564C84.2044 37.4317 84.9105 38.135 85.7817 38.135C86.6529 38.135 87.3591 37.4317 87.3591 36.564V31.3236C87.3591 30.4559 86.6529 29.7526 85.7817 29.7526ZM84.2044 19.4951V24.7355C84.2044 25.6032 84.9105 26.3065 85.7817 26.3065C86.6529 26.3065 87.3591 25.6032 87.3591 24.7355V19.4951C87.3591 18.6274 86.6529 17.9241 85.7817 17.9241C84.9105 17.9241 84.2044 18.6277 84.2044 19.4951ZM21.4512 16.1377H16.1895C15.3183 16.1377 14.6121 15.4344 14.6121 14.5667C14.6121 13.6991 15.3183 12.9958 16.1895 12.9958H21.4512C22.3224 12.9958 23.0285 13.6991 23.0285 14.5667C23.0285 15.4344 22.3224 16.1377 21.4512 16.1377ZM34.9051 14.5667C34.9051 13.6991 34.1989 12.9958 33.3277 12.9958H28.066C27.1949 12.9958 26.4887 13.6991 26.4887 14.5667C26.4887 15.4344 27.1949 16.1377 28.066 16.1377H33.3277C34.1987 16.1377 34.9051 15.4344 34.9051 14.5667ZM46.7814 14.5667C46.7814 13.6991 46.0752 12.9958 45.204 12.9958H39.9423C39.0711 12.9958 38.365 13.6991 38.365 14.5667C38.365 15.4344 39.0711 16.1377 39.9423 16.1377H45.204C46.0752 16.1377 46.7814 15.4344 46.7814 14.5667ZM58.6577 14.5667C58.6577 13.6991 57.9515 12.9958 57.0803 12.9958H51.8188C50.9477 12.9958 50.2415 13.6991 50.2415 14.5667C50.2415 15.4344 50.9477 16.1377 51.8188 16.1377H57.0805C57.9515 16.1377 58.6577 15.4344 58.6577 14.5667ZM68.9568 16.1377C69.828 16.1377 70.5342 15.4344 70.5342 14.5667C70.5342 13.6991 69.828 12.9958 68.9568 12.9958H63.6951C62.824 12.9958 62.1178 13.6991 62.1178 14.5667C62.1178 15.4344 62.824 16.1377 63.6951 16.1377H68.9568ZM73.9941 14.5667C73.9941 15.4344 74.7002 16.1377 75.5714 16.1377H80.8331C81.7043 16.1377 82.4105 15.4344 82.4105 14.5667C82.4105 13.6991 81.7043 12.9958 80.8331 12.9958H75.5714C74.7005 12.9958 73.9941 13.6991 73.9941 14.5667ZM58.1133 29.4024L70.8863 42.1237C71.5022 42.7371 72.5008 42.7371 73.1169 42.1237C73.7327 41.5104 73.7327 40.5158 73.1169 39.9024L60.3439 27.1811C59.728 26.5677 58.7294 26.5677 58.1136 27.1811C57.4975 27.7942 57.4975 28.789 58.1133 29.4024ZM39.0839 29.4024C38.468 28.789 38.468 27.7945 39.0839 27.1809C39.6998 26.5675 40.6983 26.5675 41.3142 27.1809L73.1166 58.8547C73.7325 59.468 73.7325 60.4626 73.1166 61.076C72.5008 61.6893 71.5022 61.6893 70.8861 61.076L39.0839 29.4024ZM20.0542 29.4024C19.4384 28.789 19.4384 27.7945 20.0542 27.1809C20.6701 26.5675 21.6687 26.5675 22.2845 27.1809L73.1166 77.8074C73.7325 78.4208 73.7325 79.4153 73.1166 80.0287C72.5008 80.6421 71.5022 80.6421 70.8861 80.0287L20.0542 29.4024ZM20.0542 48.3549L51.8567 80.0287C52.4725 80.6421 53.4711 80.6421 54.0872 80.0287C54.7033 79.4153 54.7031 78.4208 54.0872 77.8074L22.2848 46.1336C21.6689 45.5202 20.6703 45.5202 20.0545 46.1336C19.4384 46.7467 19.4384 47.7415 20.0542 48.3549ZM20.0542 67.3073L32.8272 80.0287C33.4431 80.6421 34.4417 80.6421 35.0578 80.0287C35.6736 79.4153 35.6736 78.4208 35.0578 77.8074L22.2848 65.0861C21.6689 64.4727 20.6703 64.4727 20.0545 65.0861C19.4386 65.6994 19.4384 66.694 20.0542 67.3073ZM16.7899 91.3105C16.781 91.2484 16.7981 91.1913 16.8396 91.1438C16.8807 91.0963 16.9352 91.0718 16.9983 91.0718H94.4883C94.5825 91.0718 94.6625 91.0126 94.6897 90.9226C94.7169 90.8327 94.683 90.7396 94.6044 90.6878L90.772 88.1602C90.0472 87.6823 89.8485 86.7096 90.3283 85.9878C90.8081 85.266 91.7848 85.0681 92.5095 85.5459L101.196 91.275C101.198 91.2762 101.2 91.2774 101.202 91.2786C102.266 91.9332 102.266 93.3521 101.202 94.0068C101.2 94.008 101.198 94.0089 101.196 94.0104L92.5095 99.7394C91.7848 100.217 90.8081 100.019 90.3283 99.2976C89.8485 98.5758 90.0472 97.603 90.772 97.1252L94.6044 94.5976C94.683 94.5458 94.7169 94.4525 94.6897 94.3627C94.6625 94.2728 94.5825 94.2135 94.4883 94.2135H16.9983C16.9352 94.2135 16.881 94.1888 16.8396 94.1416C16.7981 94.0941 16.7813 94.0372 16.7902 93.9749C16.9149 93.0931 16.9149 92.1926 16.7899 91.3105ZM1.04842 92.6428C1.04842 96.1304 3.88665 98.9574 7.38867 98.9574C10.8907 98.9574 13.7289 96.1307 13.7289 92.6428C13.7289 89.1549 10.8907 86.3282 7.38867 86.3282C3.88689 86.3282 1.04842 89.1549 1.04842 92.6428Z" fill="#064685"/>
</svg>
